<svg id="svg" version="1.1" xmlns="http://www.w3.org/2000/svg" xmlns:xlink="http://www.w3.org/1999/xlink" width="400" height="229.23976608187135" viewBox="0, 0, 400,229.23976608187135"><g id="svgg"><path id="path0" d="M186.812 37.264 C 185.972 37.541,186.196 37.567,189.450 37.567 C 192.703 37.567,192.927 37.541,192.087 37.264 C 191.583 37.098,190.396 36.962,189.450 36.962 C 188.503 36.962,187.317 37.098,186.812 37.264 M67.663 38.874 C 67.507 39.061,67.262 39.145,67.119 39.059 C 66.926 38.943,66.924 38.989,67.113 39.233 C 67.814 40.141,67.096 41.655,66.035 41.505 C 65.857 41.480,65.427 41.472,65.080 41.487 L 64.450 41.514 64.450 43.553 C 64.450 45.735,64.375 45.872,63.177 45.872 C 62.438 45.872,62.156 46.493,62.156 48.122 C 62.156 49.622,62.349 49.912,63.497 50.142 C 64.236 50.290,64.505 50.688,63.866 50.688 C 62.806 50.688,62.357 51.728,62.403 54.074 C 62.427 55.302,62.359 61.158,62.251 67.087 C 62.144 73.016,62.052 95.634,62.048 117.350 C 62.040 161.530,61.891 157.675,63.613 157.843 C 64.299 157.909,64.341 157.970,64.450 159.060 L 64.564 160.206 79.587 160.206 L 94.610 160.206 94.610 154.128 C 94.610 148.375,94.403 143.890,94.087 142.805 C 94.008 142.537,93.923 136.640,93.897 129.702 C 93.871 122.764,93.798 116.570,93.735 115.938 C 93.672 115.306,93.710 114.274,93.820 113.645 C 94.403 110.295,94.616 105.228,94.254 103.283 C 94.006 101.949,94.117 100.381,94.632 97.964 L 94.748 97.419 95.274 97.913 C 95.563 98.185,96.041 98.453,96.335 98.510 C 97.049 98.647,97.296 98.927,97.279 99.576 C 97.272 99.872,97.207 101.843,97.135 103.956 C 97.056 106.284,97.089 107.798,97.219 107.798 C 97.337 107.798,97.378 108.014,97.309 108.277 C 97.209 108.661,97.276 108.740,97.652 108.678 C 98.673 108.510,99.378 109.760,99.548 112.040 C 99.632 113.176,99.719 113.951,99.741 113.761 C 99.763 113.572,99.949 113.758,100.154 114.174 C 100.390 114.653,100.645 114.886,100.849 114.808 C 101.052 114.730,101.110 114.782,101.006 114.950 C 100.893 115.134,100.977 115.164,101.281 115.048 C 101.613 114.922,101.656 114.946,101.457 115.147 C 101.093 115.514,100.345 115.232,100.048 114.617 C 99.854 114.214,99.798 114.190,99.786 114.502 C 99.766 115.020,100.792 115.683,101.377 115.530 C 101.797 115.420,102.057 116.713,101.862 117.947 C 101.847 118.042,101.912 118.107,102.007 118.092 C 102.101 118.077,102.618 118.077,103.154 118.092 L 104.128 118.119 104.128 120.711 C 104.128 122.421,104.222 123.396,104.404 123.578 C 104.618 123.792,104.618 123.853,104.404 123.853 C 104.252 123.853,104.128 124.008,104.128 124.197 C 104.128 124.386,104.238 124.541,104.371 124.541 C 104.505 124.541,104.541 124.660,104.451 124.806 C 104.353 124.964,104.387 125.009,104.536 124.917 C 104.673 124.832,104.850 124.868,104.929 124.996 C 105.008 125.124,105.279 125.229,105.532 125.229 C 105.784 125.229,105.927 125.127,105.850 125.003 C 105.770 124.873,105.862 124.834,106.066 124.912 C 106.407 125.043,106.503 126.201,106.466 129.761 C 106.461 130.238,106.548 130.454,106.705 130.357 C 106.856 130.263,106.885 130.313,106.779 130.484 C 106.677 130.649,106.781 130.896,107.030 131.082 C 107.423 131.376,107.412 131.390,106.881 131.267 C 106.317 131.137,106.315 131.142,106.766 131.525 C 107.018 131.739,107.070 131.840,106.881 131.749 C 106.605 131.617,106.592 131.644,106.817 131.887 C 107.034 132.120,107.226 132.131,107.660 131.933 C 108.508 131.547,108.733 132.015,108.785 134.270 C 108.810 135.352,108.908 136.238,109.002 136.238 C 109.097 136.239,109.182 136.419,109.192 136.640 C 109.204 136.895,109.254 136.933,109.329 136.745 C 109.427 136.503,109.514 136.503,109.805 136.745 C 110.002 136.908,110.198 137.015,110.242 136.984 C 110.864 136.535,111.252 138.749,111.286 142.928 C 111.292 143.716,111.336 143.768,112.011 143.762 C 113.635 143.747,113.532 143.590,113.532 146.101 C 113.532 147.362,113.558 148.401,113.589 148.409 C 113.621 148.417,114.110 148.476,114.677 148.540 C 115.243 148.605,115.725 148.676,115.747 148.699 C 115.770 148.721,115.812 149.926,115.841 151.376 C 115.869 152.827,115.994 154.143,116.117 154.300 C 116.267 154.492,116.256 154.587,116.083 154.587 C 115.942 154.587,115.826 154.690,115.826 154.817 C 115.826 154.943,115.903 155.034,115.998 155.019 C 116.442 154.948,116.596 155.073,116.298 155.262 C 116.075 155.403,116.283 155.451,116.937 155.410 C 118.085 155.336,118.061 155.310,118.138 156.768 C 118.171 157.398,118.278 158.138,118.376 158.414 C 118.492 158.739,118.458 158.948,118.280 159.010 C 118.109 159.070,118.257 159.359,118.669 159.771 C 119.082 160.184,119.370 160.331,119.430 160.161 C 119.497 159.969,119.692 159.948,120.074 160.094 C 120.382 160.211,125.851 160.281,132.605 160.254 L 144.589 160.206 144.721 159.650 C 144.793 159.344,145.004 159.043,145.190 158.982 C 145.483 158.885,145.482 158.926,145.183 159.296 C 144.994 159.530,144.961 159.648,145.110 159.559 C 145.259 159.469,145.446 159.501,145.525 159.629 C 145.604 159.757,145.543 159.862,145.388 159.862 C 145.234 159.862,145.169 159.924,145.245 160.000 C 145.566 160.322,145.891 159.818,145.596 159.455 C 145.341 159.141,145.356 159.110,145.700 159.239 C 145.920 159.322,146.101 159.300,146.101 159.192 C 146.101 159.083,145.943 158.933,145.749 158.859 C 145.436 158.739,145.435 158.666,145.739 158.202 C 145.996 157.809,146.088 156.878,146.113 154.413 C 146.133 152.422,146.240 151.088,146.386 150.998 C 146.540 150.903,146.584 151.069,146.509 151.462 C 146.445 151.799,146.497 152.140,146.626 152.220 C 146.755 152.299,146.791 152.252,146.706 152.116 C 146.474 151.740,147.035 151.499,147.295 151.863 C 147.466 152.103,147.488 152.079,147.384 151.759 C 147.309 151.528,147.248 151.289,147.248 151.229 C 147.248 151.169,147.119 151.193,146.961 151.282 C 146.748 151.402,146.739 151.373,146.929 151.166 C 147.069 151.014,147.543 150.870,147.981 150.846 C 148.615 150.812,148.757 150.721,148.675 150.404 C 148.618 150.185,148.464 150.072,148.333 150.153 C 148.190 150.241,148.163 150.188,148.267 150.020 C 148.397 149.811,148.563 149.843,148.933 150.151 C 149.205 150.377,149.298 150.414,149.140 150.235 C 148.694 149.727,148.803 149.424,149.277 149.853 C 149.677 150.215,149.794 149.815,149.564 148.875 C 149.552 148.824,149.334 148.969,149.081 149.199 C 148.828 149.428,148.569 149.563,148.505 149.499 C 148.256 149.250,148.342 144.628,148.597 144.543 C 148.738 144.496,148.853 144.294,148.853 144.094 C 148.853 143.894,148.921 143.799,149.005 143.882 C 149.364 144.241,149.872 142.883,150.128 140.879 C 150.416 138.633,150.696 138.079,151.577 138.012 C 152.538 137.940,152.738 137.405,152.847 134.619 C 152.904 133.176,152.957 131.919,152.966 131.826 C 152.975 131.733,153.398 131.590,153.907 131.509 C 155.077 131.322,155.268 130.958,155.302 128.857 C 155.325 127.434,155.623 125.348,155.707 126.019 C 155.722 126.137,155.885 126.034,156.071 125.789 C 156.256 125.544,156.411 125.421,156.415 125.515 C 156.419 125.608,156.683 125.458,157.002 125.181 C 157.321 124.904,157.531 124.543,157.468 124.380 C 157.405 124.216,157.434 124.083,157.533 124.083 C 157.631 124.083,157.734 123.185,157.762 122.087 C 157.791 120.990,157.842 120.063,157.877 120.028 C 157.951 119.954,158.922 119.767,159.360 119.742 C 159.525 119.732,159.596 119.622,159.518 119.495 C 159.440 119.369,159.517 119.266,159.689 119.266 C 159.876 119.266,160.005 119.012,160.009 118.635 C 160.013 118.288,160.033 116.887,160.054 115.522 L 160.092 113.039 161.096 113.101 C 161.763 113.142,162.312 113.024,162.730 112.750 C 163.076 112.523,163.296 112.441,163.218 112.567 C 163.140 112.693,163.256 112.874,163.476 112.969 C 164.240 113.300,164.395 113.261,164.287 112.762 C 164.200 112.363,164.227 112.335,164.426 112.615 C 164.561 112.804,164.673 113.191,164.675 113.475 C 164.677 113.759,164.775 113.991,164.893 113.991 C 165.010 113.991,165.177 114.211,165.262 114.480 C 165.384 114.864,165.460 114.901,165.618 114.652 C 165.974 114.090,165.849 114.953,165.482 115.596 C 164.687 116.986,165.245 120.597,166.427 121.714 L 167.197 122.442 167.290 140.865 C 167.395 161.554,167.351 159.480,167.683 159.275 C 167.850 159.172,167.843 159.293,167.661 159.633 C 167.504 159.925,167.487 160.084,167.622 160.001 C 167.752 159.921,167.920 159.955,167.996 160.078 C 168.084 160.220,173.620 160.305,183.043 160.311 L 197.951 160.320 198.134 159.825 C 198.291 159.401,198.338 159.385,198.463 159.711 C 198.648 160.192,199.165 160.201,199.557 159.729 C 199.794 159.444,199.799 159.273,199.583 158.926 C 199.358 158.565,199.370 158.486,199.654 158.486 C 199.844 158.486,200.000 158.331,200.000 158.142 C 200.000 157.953,199.871 157.797,199.713 157.795 C 199.492 157.792,199.490 157.751,199.704 157.615 C 199.902 157.489,199.971 156.530,199.945 154.259 C 199.925 152.510,199.868 151.198,199.820 151.344 C 199.771 151.489,199.637 151.550,199.522 151.479 C 199.406 151.407,199.309 151.536,199.305 151.764 C 199.298 152.153,199.283 152.154,199.066 151.781 C 198.873 151.449,198.760 151.430,198.378 151.667 C 198.004 151.898,197.882 151.887,197.703 151.606 C 197.296 150.964,197.525 74.236,197.936 73.730 C 198.125 73.497,198.177 73.368,198.050 73.443 C 197.678 73.664,197.607 68.782,197.980 68.546 C 198.568 68.173,198.866 68.329,198.753 68.950 C 198.693 69.281,198.711 69.485,198.793 69.403 C 198.875 69.321,198.974 69.043,199.013 68.784 C 199.111 68.146,199.694 67.560,199.842 67.949 C 199.902 68.106,199.949 64.931,199.948 60.894 C 199.945 56.518,199.866 53.833,199.751 54.243 C 199.623 54.699,199.588 54.228,199.646 52.852 C 199.732 50.847,199.558 49.875,199.212 50.434 C 199.126 50.574,198.826 50.688,198.545 50.688 C 198.193 50.688,198.034 50.826,198.034 51.130 C 198.034 51.373,198.115 51.522,198.214 51.460 C 198.313 51.399,198.394 51.516,198.394 51.720 C 198.394 51.924,198.300 52.033,198.185 51.962 C 198.069 51.890,197.923 51.962,197.859 52.120 C 197.795 52.279,197.734 51.454,197.725 50.287 C 197.713 48.878,197.792 48.165,197.960 48.165 C 198.100 48.165,198.153 48.325,198.078 48.521 C 197.999 48.725,198.038 48.817,198.168 48.737 C 198.535 48.510,198.446 47.638,198.069 47.782 C 197.550 47.981,197.443 47.357,197.332 43.463 C 197.274 41.445,197.195 39.567,197.157 39.289 C 197.095 38.850,197.208 38.774,198.027 38.706 C 198.545 38.662,190.969 38.642,181.193 38.661 C 171.416 38.679,163.237 38.716,163.016 38.742 C 162.563 38.796,162.458 39.448,162.901 39.453 C 163.115 39.456,163.110 39.506,162.881 39.651 C 162.712 39.758,162.594 40.092,162.620 40.393 C 162.645 40.694,162.654 41.482,162.640 42.144 L 162.615 43.349 161.453 43.349 C 160.485 43.349,160.299 43.415,160.333 43.750 C 160.356 43.971,160.362 45.003,160.348 46.044 L 160.321 47.936 159.303 47.936 C 157.991 47.936,157.961 48.002,157.910 51.013 C 157.861 53.893,157.764 54.323,157.047 54.841 C 156.549 55.201,156.537 55.193,156.558 54.497 C 156.574 53.943,156.692 53.768,157.091 53.709 C 157.433 53.658,157.561 53.521,157.474 53.296 C 157.401 53.106,157.444 53.019,157.571 53.098 C 157.696 53.175,157.798 53.129,157.798 52.995 C 157.798 52.604,157.523 52.711,156.836 53.369 C 156.482 53.708,156.193 53.868,156.193 53.724 C 156.193 53.581,156.361 53.369,156.566 53.254 C 156.842 53.100,156.867 53.000,156.661 52.873 C 155.959 52.439,155.794 53.055,155.590 56.881 C 155.439 59.700,155.377 59.841,154.328 59.719 C 153.918 59.671,153.703 59.730,153.787 59.867 C 153.865 59.992,153.780 60.152,153.599 60.221 C 153.352 60.316,153.260 60.863,153.228 62.437 C 153.205 63.586,153.089 64.707,152.971 64.928 C 152.833 65.186,152.839 65.371,152.989 65.446 C 153.118 65.510,153.091 65.532,152.930 65.497 C 152.769 65.461,152.657 65.184,152.680 64.883 C 152.704 64.582,152.669 64.465,152.603 64.623 C 152.538 64.781,152.391 64.854,152.277 64.783 C 152.163 64.713,152.127 64.805,152.197 64.988 C 152.267 65.171,152.236 65.375,152.127 65.443 C 152.019 65.510,151.914 65.354,151.895 65.096 C 151.846 64.452,151.651 64.309,151.315 64.670 C 151.090 64.913,151.091 64.942,151.319 64.814 C 151.476 64.725,151.606 64.761,151.606 64.895 C 151.606 65.028,151.451 65.138,151.261 65.138 C 151.072 65.138,150.917 65.238,150.917 65.360 C 150.917 65.482,151.072 65.523,151.261 65.450 C 151.451 65.377,151.606 65.424,151.606 65.553 C 151.606 65.682,151.476 65.840,151.319 65.903 C 151.099 65.992,151.103 66.023,151.334 66.037 C 151.500 66.047,151.829 65.952,152.065 65.825 C 152.584 65.548,152.761 65.776,152.510 66.399 L 152.326 66.858 152.301 66.399 C 152.279 66.006,152.226 66.031,151.933 66.571 C 151.745 66.918,151.443 67.202,151.263 67.202 C 151.007 67.202,150.920 67.667,150.869 69.323 L 150.803 71.445 149.936 71.434 C 149.320 71.425,149.102 71.508,149.182 71.717 C 149.244 71.880,149.173 71.988,149.022 71.958 C 148.872 71.928,148.712 72.147,148.667 72.445 C 148.615 72.791,148.675 72.931,148.834 72.833 C 148.971 72.749,149.083 72.789,149.083 72.922 C 149.083 73.056,148.979 73.165,148.853 73.165 C 148.722 73.165,148.624 73.845,148.624 74.746 C 148.624 75.940,148.540 76.359,148.280 76.459 C 148.091 76.532,147.944 76.723,147.954 76.885 C 147.968 77.115,147.997 77.117,148.088 76.892 C 148.295 76.377,148.624 76.591,148.617 77.236 C 148.608 78.016,148.157 78.639,147.534 78.734 C 147.275 78.773,146.872 78.954,146.639 79.135 C 146.227 79.455,146.227 79.451,146.639 78.967 C 146.873 78.693,146.995 78.360,146.913 78.225 C 146.830 78.091,146.897 77.980,147.062 77.978 C 147.295 77.975,147.291 77.929,147.042 77.772 C 146.778 77.605,146.788 77.555,147.097 77.489 C 147.379 77.428,147.327 77.341,146.884 77.135 C 146.430 76.924,146.343 76.924,146.500 77.135 C 146.739 77.457,146.721 77.662,146.384 78.471 C 146.234 78.831,146.183 79.760,146.258 80.765 C 146.400 82.678,145.689 84.079,144.967 83.307 C 144.698 83.018,144.630 83.024,144.448 83.350 C 144.332 83.556,144.141 83.665,144.023 83.592 C 143.670 83.374,143.779 83.883,144.168 84.273 C 144.468 84.573,144.473 84.633,144.197 84.633 C 143.949 84.633,143.855 84.992,143.819 86.067 C 143.725 88.953,143.517 89.691,142.804 89.672 C 142.662 89.668,142.722 89.562,142.938 89.437 C 143.177 89.297,143.273 89.062,143.185 88.832 C 143.089 88.581,143.130 88.512,143.310 88.623 C 143.457 88.714,143.578 88.677,143.578 88.540 C 143.578 88.403,143.313 88.191,142.990 88.068 C 142.227 87.778,142.193 87.783,142.342 88.170 C 142.413 88.357,142.263 88.606,141.990 88.752 C 141.493 89.018,141.324 89.908,141.771 89.908 C 141.957 89.908,141.959 89.992,141.780 90.207 C 141.644 90.372,141.502 91.481,141.466 92.673 L 141.399 94.839 140.518 94.770 C 139.868 94.718,139.682 94.774,139.810 94.981 C 139.925 95.167,139.871 95.218,139.648 95.133 C 139.400 95.037,139.307 95.191,139.291 95.724 C 139.238 97.480,139.232 97.497,138.527 97.742 C 137.796 97.997,137.379 98.548,137.394 99.240 C 137.400 99.511,137.508 99.415,137.705 98.962 C 138.012 98.258,139.220 97.468,139.220 97.971 C 139.220 98.364,137.590 99.810,137.280 99.691 C 137.112 99.627,137.003 99.820,136.998 100.195 C 136.973 101.959,136.940 102.064,136.404 102.064 C 135.608 102.064,134.932 102.657,134.776 103.492 C 134.546 104.725,134.517 104.788,133.874 105.459 C 133.116 106.250,133.113 106.310,133.830 106.369 C 134.147 106.396,134.404 106.295,134.404 106.144 C 134.404 105.994,134.829 106.313,135.348 106.854 C 136.212 107.753,136.279 107.908,136.131 108.677 C 136.042 109.140,135.881 109.983,135.773 110.550 C 135.666 111.118,135.572 112.086,135.564 112.701 C 135.554 113.490,135.356 114.167,134.891 114.995 C 134.529 115.641,134.011 116.914,133.740 117.825 C 133.470 118.735,133.008 119.759,132.714 120.101 L 132.179 120.722 131.364 120.219 C 129.602 119.129,128.514 117.553,127.858 115.138 C 127.636 114.318,127.276 113.440,127.058 113.188 C 126.426 112.455,126.203 111.895,125.919 110.330 C 125.772 109.521,125.410 108.382,125.115 107.798 C 124.819 107.215,124.322 105.702,124.009 104.436 C 123.697 103.170,123.170 101.562,122.840 100.863 C 122.282 99.685,122.240 99.375,122.262 96.642 C 122.275 95.019,122.251 93.537,122.209 93.348 C 122.167 93.158,122.269 93.033,122.437 93.068 C 122.609 93.103,122.672 93.020,122.583 92.876 C 122.496 92.735,122.231 92.672,121.992 92.734 C 121.754 92.796,121.560 92.753,121.560 92.639 C 121.560 92.525,121.663 92.431,121.789 92.431 C 121.915 92.431,121.993 92.315,121.961 92.173 C 121.929 92.031,122.047 91.863,122.222 91.799 C 122.407 91.732,122.478 91.786,122.391 91.927 C 122.308 92.061,122.326 92.223,122.432 92.289 C 122.537 92.354,122.626 91.698,122.630 90.832 C 122.636 89.472,122.592 89.302,122.311 89.583 C 121.794 90.100,121.701 89.961,122.129 89.308 C 122.721 88.406,122.116 87.806,121.213 88.398 C 120.620 88.787,120.613 88.785,120.863 88.319 C 121.159 87.765,120.720 87.640,120.201 88.131 C 119.953 88.366,119.938 88.335,120.119 87.959 C 120.545 87.077,120.352 85.706,119.762 85.411 C 119.396 85.229,119.323 85.107,119.532 85.030 C 119.756 84.947,119.686 84.769,119.275 84.373 C 118.761 83.879,118.748 83.877,119.138 84.346 C 119.669 84.986,119.417 85.015,118.641 84.404 C 118.302 84.138,118.191 83.943,118.375 83.941 C 118.628 83.939,118.623 83.893,118.349 83.716 C 118.043 83.518,118.043 83.492,118.349 83.486 C 118.648 83.480,118.649 83.452,118.358 83.268 C 118.145 83.133,118.044 82.753,118.080 82.220 C 118.122 81.590,118.063 81.428,117.841 81.562 C 117.654 81.675,117.672 81.582,117.890 81.308 C 118.206 80.912,118.197 80.890,117.775 81.036 C 117.350 81.182,117.345 81.171,117.718 80.881 C 118.223 80.488,118.241 79.817,117.747 79.817 C 117.438 79.817,117.425 79.757,117.669 79.463 C 118.107 78.935,117.593 78.481,117.054 78.920 C 116.703 79.206,116.675 79.197,116.808 78.842 C 116.923 78.534,116.839 78.441,116.449 78.444 C 116.076 78.446,116.024 78.500,116.252 78.645 C 116.451 78.771,116.478 78.894,116.325 78.988 C 115.975 79.205,115.842 78.557,115.782 76.335 C 115.750 75.137,115.641 74.399,115.509 74.481 C 115.388 74.555,115.348 74.462,115.421 74.273 C 115.498 74.072,115.423 73.930,115.241 73.930 C 115.069 73.930,114.982 74.016,115.047 74.121 C 115.112 74.226,115.044 74.312,114.897 74.312 C 114.742 74.312,114.689 74.481,114.770 74.713 C 114.902 75.093,114.893 75.094,114.599 74.717 C 114.429 74.498,114.206 74.395,114.104 74.488 C 114.001 74.580,113.985 74.470,114.066 74.243 C 114.151 74.008,114.122 73.887,114.000 73.962 C 113.674 74.163,113.324 73.340,113.410 72.578 C 113.452 72.207,113.367 71.755,113.222 71.573 C 113.013 71.310,113.025 71.282,113.281 71.436 C 113.515 71.577,113.552 71.547,113.415 71.326 C 113.167 70.925,113.136 69.725,113.374 69.725 C 113.476 69.725,113.498 69.626,113.424 69.505 C 113.349 69.385,113.120 69.351,112.914 69.430 C 112.692 69.515,112.597 69.479,112.682 69.343 C 112.876 69.028,112.084 69.043,111.873 69.358 C 111.756 69.532,111.703 69.521,111.701 69.323 C 111.699 69.166,111.542 69.037,111.353 69.037 C 111.073 69.037,111.009 68.654,111.009 66.972 C 111.009 65.476,110.930 64.907,110.722 64.905 C 110.531 64.902,110.550 64.827,110.780 64.679 C 111.095 64.475,110.940 64.348,110.476 64.428 C 110.372 64.446,110.353 64.353,110.435 64.222 C 110.516 64.091,110.678 64.043,110.796 64.115 C 110.913 64.188,111.009 64.086,111.009 63.890 C 111.009 63.487,110.653 63.410,110.433 63.765 C 110.354 63.893,110.193 63.939,110.076 63.866 C 109.958 63.794,109.856 63.921,109.848 64.149 C 109.837 64.471,109.785 64.443,109.617 64.024 C 109.468 63.653,109.283 63.529,109.026 63.628 C 108.722 63.745,108.702 63.710,108.924 63.443 C 109.074 63.262,109.104 63.057,108.992 62.988 C 108.820 62.881,108.733 62.072,108.658 59.862 C 108.651 59.673,108.533 59.443,108.394 59.350 C 108.220 59.233,108.231 59.180,108.429 59.178 C 108.587 59.176,108.716 58.905,108.716 58.576 C 108.716 58.102,108.633 58.010,108.314 58.131 C 107.992 58.254,107.970 58.227,108.200 57.995 C 108.640 57.551,108.552 57.455,107.700 57.447 C 107.268 57.444,106.919 57.495,106.925 57.562 C 106.972 58.114,106.839 58.488,106.640 58.365 C 106.476 58.263,106.474 58.127,106.635 57.933 C 106.780 57.758,106.788 57.568,106.656 57.436 C 106.538 57.318,106.423 56.420,106.401 55.440 C 106.378 54.460,106.270 53.603,106.161 53.536 C 106.052 53.468,105.965 53.290,105.967 53.140 C 105.969 52.976,106.059 53.004,106.193 53.211 C 106.373 53.491,106.416 53.461,106.419 53.053 C 106.421 52.692,106.294 52.561,105.963 52.586 C 105.711 52.605,105.505 52.705,105.505 52.809 C 105.505 52.913,105.286 52.881,105.018 52.737 C 104.683 52.558,104.580 52.555,104.686 52.727 C 104.782 52.882,104.706 52.925,104.484 52.840 C 104.266 52.756,104.130 52.425,104.132 51.982 C 104.135 51.433,104.188 51.343,104.358 51.606 C 104.480 51.795,104.582 51.865,104.584 51.762 C 104.586 51.659,104.885 51.786,105.249 52.046 C 105.809 52.444,105.953 52.468,106.178 52.197 C 106.381 51.952,106.378 51.835,106.168 51.705 C 105.986 51.592,105.952 51.632,106.070 51.821 C 106.193 52.021,106.116 52.080,105.818 52.015 C 105.583 51.964,105.417 51.795,105.451 51.638 C 105.485 51.479,105.334 51.384,105.107 51.423 C 104.836 51.468,104.723 51.364,104.765 51.107 C 104.800 50.896,104.705 50.646,104.554 50.553 C 104.367 50.437,104.326 50.505,104.426 50.765 C 104.507 50.975,104.473 51.147,104.351 51.147 C 104.226 51.147,104.128 50.338,104.128 49.298 C 104.128 48.216,104.040 47.505,103.915 47.582 C 103.798 47.655,103.637 47.609,103.557 47.481 C 103.478 47.353,103.549 47.248,103.714 47.248 C 103.891 47.248,104.018 46.973,104.024 46.577 C 104.031 46.038,103.962 45.944,103.673 46.099 C 103.471 46.207,103.141 46.194,102.917 46.069 C 102.698 45.947,102.417 45.910,102.293 45.987 C 101.868 46.249,101.547 45.088,101.796 44.187 C 101.925 43.719,101.937 43.349,101.824 43.349 C 101.712 43.349,101.672 43.212,101.737 43.044 C 101.801 42.877,101.740 42.440,101.601 42.074 C 101.423 41.608,101.420 41.384,101.591 41.327 C 101.944 41.210,101.890 40.603,101.513 40.459 C 101.337 40.391,101.140 40.136,101.076 39.894 C 101.013 39.651,100.771 39.381,100.538 39.295 C 100.305 39.209,100.041 39.028,99.951 38.893 C 99.664 38.461,68.021 38.442,67.663 38.874 M100.508 39.005 C 100.724 39.131,101.059 39.460,101.253 39.737 C 101.447 40.013,101.606 40.114,101.606 39.959 C 101.606 39.590,100.766 38.760,100.401 38.768 C 100.239 38.772,100.284 38.874,100.508 39.005 M164.250 39.278 C 164.489 39.727,164.480 39.757,164.179 39.509 C 163.989 39.352,163.766 39.292,163.683 39.375 C 163.600 39.458,163.532 39.423,163.532 39.297 C 163.532 39.081,163.755 38.761,163.906 38.761 C 163.944 38.761,164.098 38.994,164.250 39.278 M103.180 43.949 C 103.521 44.188,103.669 44.473,103.596 44.752 C 103.534 44.990,103.577 45.126,103.691 45.056 C 104.184 44.751,103.567 43.578,102.914 43.578 C 102.769 43.578,102.888 43.745,103.180 43.949 M102.525 44.378 C 102.369 44.566,102.124 44.652,101.981 44.568 C 101.838 44.485,101.917 44.641,102.158 44.916 C 102.657 45.485,102.838 45.405,102.881 44.599 C 102.916 43.940,102.898 43.929,102.525 44.378 M63.991 46.383 C 63.991 46.522,63.926 46.572,63.848 46.493 C 63.769 46.414,63.520 46.578,63.294 46.856 C 62.813 47.449,62.457 47.265,62.854 46.629 C 63.149 46.156,63.991 45.974,63.991 46.383 M63.766 47.357 C 63.606 47.549,63.369 47.706,63.239 47.706 C 63.109 47.706,63.190 47.499,63.419 47.246 C 63.893 46.722,64.209 46.823,63.766 47.357 M64.230 47.688 C 64.060 48.005,64.071 48.154,64.268 48.219 C 64.479 48.289,64.478 48.350,64.265 48.482 C 63.869 48.726,63.650 48.003,63.993 47.589 C 64.389 47.112,64.511 47.163,64.230 47.688 M62.705 47.803 C 62.624 48.014,62.767 48.164,63.113 48.230 C 63.592 48.322,63.582 48.335,63.016 48.363 C 62.528 48.387,62.385 48.291,62.385 47.936 C 62.385 47.683,62.485 47.477,62.607 47.477 C 62.730 47.477,62.773 47.624,62.705 47.803 M198.598 48.000 C 198.583 48.280,198.538 48.793,198.497 49.140 C 198.395 49.998,198.550 49.932,198.965 48.940 C 199.396 47.908,199.396 47.788,198.968 47.623 C 198.729 47.532,198.616 47.647,198.598 48.000 M63.016 48.853 C 62.985 48.979,63.062 49.057,63.188 49.025 C 63.314 48.994,63.383 48.865,63.341 48.739 C 63.299 48.612,63.346 48.590,63.445 48.690 C 63.545 48.789,63.662 49.137,63.705 49.462 L 63.784 50.054 63.120 49.511 C 62.693 49.162,62.545 48.908,62.707 48.799 C 63.042 48.575,63.084 48.582,63.016 48.853 M63.814 51.503 C 62.881 52.156,62.682 54.358,63.556 54.358 C 63.684 54.358,63.730 54.452,63.659 54.568 C 63.588 54.683,63.639 54.814,63.774 54.859 C 63.933 54.912,63.894 55.180,63.662 55.624 C 63.311 56.298,63.306 56.299,63.302 55.734 C 63.300 55.419,63.144 54.654,62.956 54.035 C 62.468 52.427,62.906 51.147,63.944 51.147 C 64.240 51.147,64.212 51.224,63.814 51.503 M109.064 62.379 C 108.988 62.501,109.097 62.863,109.306 63.182 C 109.726 63.823,109.985 63.952,109.779 63.417 C 109.707 63.228,109.747 63.073,109.870 63.073 C 109.992 63.073,110.095 63.254,110.099 63.475 C 110.105 63.854,110.119 63.854,110.342 63.470 C 110.472 63.247,110.691 63.133,110.829 63.219 C 110.976 63.309,111.015 63.268,110.923 63.119 C 110.836 62.979,110.596 62.929,110.389 63.009 C 110.108 63.116,110.049 63.058,110.157 62.777 C 110.236 62.569,110.210 62.344,110.099 62.275 C 109.988 62.207,109.850 62.332,109.792 62.555 C 109.692 62.936,109.685 62.937,109.660 62.557 C 109.631 62.123,109.286 62.019,109.064 62.379 M199.369 69.455 C 199.140 69.601,199.140 69.715,199.369 70.029 C 199.627 70.381,199.659 70.363,199.689 69.843 C 199.707 69.526,199.707 69.268,199.689 69.270 C 199.671 69.271,199.527 69.355,199.369 69.455 M198.981 71.310 C 198.910 71.424,198.915 71.682,198.992 71.883 C 199.070 72.088,199.014 72.248,198.863 72.248 C 198.716 72.248,198.617 72.428,198.645 72.649 C 198.672 72.870,198.617 73.228,198.523 73.444 C 198.195 74.196,198.535 74.378,198.891 73.642 C 199.243 72.915,199.253 72.911,199.431 73.435 C 199.576 73.863,199.639 73.719,199.749 72.706 C 199.893 71.371,199.446 70.557,198.981 71.310 M199.109 74.006 C 199.095 74.154,199.016 74.463,198.934 74.695 C 198.819 75.021,198.849 75.056,199.070 74.852 C 199.227 74.708,199.306 74.398,199.245 74.164 C 199.185 73.930,199.124 73.859,199.109 74.006 M147.243 76.298 C 147.373 76.363,147.426 76.503,147.360 76.609 C 147.294 76.716,147.355 76.874,147.495 76.961 C 147.654 77.059,147.721 76.964,147.671 76.709 C 147.627 76.484,147.460 76.273,147.299 76.240 C 147.138 76.208,147.113 76.234,147.243 76.298 M118.777 84.711 C 118.918 84.881,118.969 85.083,118.890 85.162 C 118.812 85.240,119.019 85.428,119.351 85.579 C 119.948 85.851,120.168 86.239,119.725 86.239 C 119.599 86.239,119.495 86.129,119.495 85.996 C 119.495 85.862,119.417 85.801,119.321 85.861 C 119.224 85.920,118.889 85.827,118.575 85.653 C 118.261 85.479,118.154 85.334,118.337 85.329 C 118.596 85.323,118.609 85.260,118.394 85.046 C 118.243 84.894,118.119 84.688,118.119 84.587 C 118.119 84.301,118.495 84.372,118.777 84.711 M122.147 88.555 C 122.233 88.694,122.078 89.030,121.802 89.301 C 121.458 89.640,121.324 89.686,121.373 89.450 C 121.416 89.245,121.308 89.136,121.107 89.180 C 120.856 89.235,120.879 89.133,121.200 88.778 C 121.685 88.243,121.920 88.187,122.147 88.555 M121.393 90.571 C 121.756 90.856,121.782 90.844,121.637 90.457 C 121.499 90.090,121.528 90.067,121.824 90.308 C 122.017 90.464,122.244 90.543,122.328 90.482 C 122.412 90.421,122.379 90.491,122.255 90.639 C 122.106 90.816,122.115 91.009,122.281 91.210 C 122.465 91.432,122.463 91.514,122.272 91.514 C 122.129 91.514,121.812 91.843,121.567 92.244 C 121.196 92.854,121.129 92.892,121.161 92.474 C 121.182 92.198,121.282 91.972,121.384 91.972 C 121.487 91.972,121.402 91.689,121.196 91.342 L 120.822 90.711 121.305 91.252 C 121.571 91.550,121.789 91.702,121.789 91.590 C 121.789 91.478,121.479 91.048,121.101 90.633 C 120.722 90.219,120.416 89.809,120.420 89.722 C 120.424 89.635,120.553 89.719,120.707 89.908 C 120.861 90.097,121.169 90.396,121.393 90.571 M120.859 92.226 C 120.535 92.831,120.440 92.771,120.463 91.973 C 120.479 91.429,120.546 91.339,120.787 91.539 C 121.008 91.722,121.028 91.910,120.859 92.226 M123.500 92.676 C 123.417 92.810,123.411 92.982,123.486 93.058 C 123.562 93.134,123.624 93.075,123.624 92.928 C 123.624 92.781,123.738 92.661,123.878 92.661 C 124.025 92.661,124.067 92.829,123.979 93.062 C 123.862 93.368,123.890 93.400,124.095 93.197 C 124.371 92.923,124.215 92.431,123.853 92.431 C 123.742 92.431,123.583 92.541,123.500 92.676 M167.673 95.929 C 167.680 96.591,167.722 97.597,167.766 98.165 C 167.904 99.926,167.427 101.864,166.898 101.696 C 166.655 101.619,166.514 101.649,166.584 101.763 C 166.654 101.876,166.491 101.986,166.222 102.006 C 165.757 102.041,165.761 102.023,166.295 101.652 C 166.861 101.259,167.144 100.688,166.773 100.688 C 166.598 100.688,166.657 100.177,167.077 98.050 C 167.127 97.798,167.175 96.947,167.185 96.158 C 167.205 94.428,167.655 94.217,167.673 95.929 M136.927 102.547 C 136.927 102.687,136.766 102.740,136.571 102.665 C 136.375 102.590,136.268 102.615,136.333 102.720 C 136.399 102.826,136.201 103.047,135.894 103.211 C 135.588 103.375,135.384 103.586,135.442 103.680 C 135.500 103.774,135.405 103.906,135.231 103.973 C 134.707 104.174,135.076 103.257,135.724 102.747 C 136.359 102.247,136.927 102.153,136.927 102.547 M133.028 105.046 C 132.775 105.298,132.575 105.685,132.583 105.906 C 132.595 106.227,132.638 106.209,132.796 105.816 C 132.905 105.545,133.231 105.158,133.521 104.956 C 133.810 104.753,133.921 104.587,133.767 104.587 C 133.612 104.587,133.280 104.794,133.028 105.046 M164.879 110.502 C 164.858 111.729,164.679 112.298,164.438 111.907 C 164.332 111.737,164.335 111.491,164.442 111.361 C 164.550 111.231,164.620 110.746,164.598 110.284 C 164.576 109.822,164.634 109.490,164.726 109.547 C 164.818 109.604,164.887 110.034,164.879 110.502 M165.751 111.181 C 165.627 111.979,165.642 112.008,165.956 111.589 C 166.142 111.340,166.235 110.979,166.161 110.786 C 166.058 110.516,166.090 110.498,166.301 110.707 C 166.574 110.977,166.543 111.102,165.957 112.119 C 165.736 112.503,165.610 112.569,165.515 112.349 C 165.442 112.180,165.444 112.443,165.521 112.935 C 165.620 113.572,165.585 113.782,165.399 113.666 C 165.062 113.458,165.067 112.655,165.415 111.357 C 165.751 110.099,165.935 110.003,165.751 111.181 M162.951 113.061 C 163.040 113.205,163.007 113.451,162.877 113.607 C 162.728 113.786,162.720 114.016,162.854 114.228 C 163.086 114.596,163.152 115.596,162.944 115.596 C 162.872 115.596,162.588 115.487,162.313 115.354 C 161.829 115.121,161.827 115.124,162.257 115.469 C 162.937 116.014,163.267 115.899,163.346 115.089 C 163.400 114.529,163.555 114.315,163.991 114.195 L 164.564 114.037 163.991 113.978 C 163.675 113.945,163.290 113.923,163.133 113.929 C 162.977 113.934,162.911 113.838,162.987 113.716 C 163.063 113.593,163.320 113.543,163.558 113.605 C 164.092 113.745,163.905 113.396,163.262 113.052 C 162.910 112.863,162.830 112.865,162.951 113.061 M164.360 115.039 C 164.235 115.365,164.158 115.374,163.816 115.106 C 163.453 114.821,163.446 114.830,163.742 115.206 C 164.033 115.577,164.102 115.583,164.416 115.269 C 164.609 115.077,164.708 114.861,164.636 114.789 C 164.565 114.718,164.441 114.830,164.360 115.039 M161.935 116.558 C 161.930 116.771,162.030 117.009,162.156 117.087 C 162.560 117.337,162.425 118.347,161.984 118.367 C 161.664 118.381,161.653 118.411,161.927 118.516 C 162.116 118.588,162.346 118.760,162.439 118.899 C 162.759 119.378,162.598 117.315,162.271 116.743 C 162.032 116.326,161.941 116.275,161.935 116.558 M165.618 117.597 C 165.417 117.942,165.380 117.896,165.374 117.297 C 165.370 116.908,165.444 116.512,165.539 116.416 C 165.813 116.137,165.881 117.146,165.618 117.597 M166.860 119.728 C 167.353 120.272,167.337 121.728,166.843 121.318 C 166.255 120.830,165.791 119.738,165.953 119.226 C 166.065 118.875,166.027 118.797,165.811 118.931 C 165.600 119.061,165.561 119.000,165.672 118.712 C 165.757 118.491,165.833 118.139,165.842 117.928 C 165.851 117.718,166.007 117.952,166.188 118.448 C 166.370 118.944,166.673 119.520,166.860 119.728 M161.160 119.448 C 160.897 119.904,161.356 120.415,161.632 119.974 C 161.851 119.623,161.840 119.511,161.579 119.411 C 161.400 119.342,161.211 119.359,161.160 119.448 M161.862 120.576 C 161.933 120.759,161.514 121.341,160.866 121.960 C 160.251 122.548,159.962 122.853,160.224 122.638 C 160.487 122.423,160.806 122.248,160.934 122.248 C 161.237 122.248,161.771 121.602,162.089 120.852 C 162.286 120.389,162.275 120.260,162.041 120.260 C 161.876 120.260,161.796 120.402,161.862 120.576 M158.914 127.746 C 157.495 129.132,157.357 129.408,158.238 129.101 C 158.817 128.899,160.344 126.924,160.055 126.753 C 160.012 126.728,159.499 127.174,158.914 127.746 M152.417 147.219 C 152.336 147.474,152.061 147.749,151.806 147.830 C 151.550 147.911,151.386 148.022,151.441 148.077 C 151.495 148.131,151.712 148.110,151.923 148.029 C 152.333 147.872,152.864 147.053,152.677 146.867 C 152.615 146.805,152.499 146.963,152.417 147.219 M147.477 151.283 C 147.477 151.440,148.223 152.064,148.411 152.064 C 148.528 152.064,148.622 151.884,148.620 151.663 C 148.617 151.320,148.585 151.311,148.394 151.606 C 148.202 151.904,148.079 151.790,148.125 151.357 C 148.133 151.283,147.991 151.223,147.808 151.223 C 147.626 151.223,147.477 151.250,147.477 151.283 M145.642 157.928 C 145.642 158.191,145.504 158.249,145.126 158.143 C 144.737 158.033,144.693 158.054,144.945 158.228 C 145.235 158.427,145.227 158.517,144.888 158.892 C 144.672 159.130,144.495 159.498,144.495 159.708 C 144.495 159.919,144.328 160.092,144.123 160.092 C 143.803 160.092,143.795 160.038,144.066 159.704 C 144.239 159.490,144.267 159.384,144.128 159.467 C 143.960 159.567,143.883 159.331,143.898 158.766 C 143.920 157.977,143.983 157.902,144.725 157.771 C 145.166 157.693,145.553 157.616,145.585 157.599 C 145.616 157.582,145.642 157.731,145.642 157.928 " stroke="none" fill="#61a5f7" fill-rule="evenodd"></path><path id="path1" d="M272.394 37.150 C 272.581 37.526,273.000 38.042,273.325 38.297 L 273.915 38.761 273.232 38.761 C 272.846 38.761,272.372 38.956,272.145 39.207 C 271.923 39.452,271.453 39.716,271.101 39.794 C 270.749 39.871,270.279 40.135,270.057 40.380 C 269.776 40.691,269.353 40.826,268.661 40.826 L 267.669 40.826 267.607 70.356 L 267.546 99.885 266.929 101.606 C 265.582 105.364,265.511 105.508,265.083 105.373 C 264.812 105.287,264.679 105.365,264.679 105.612 C 264.679 106.311,263.822 105.561,263.580 104.649 C 263.423 104.058,263.343 112.559,263.326 131.550 C 263.306 155.191,263.351 159.382,263.628 159.761 C 263.944 160.193,264.420 160.208,279.913 160.273 L 295.872 160.339 295.872 138.082 C 295.872 118.452,295.912 115.826,296.216 115.826 C 296.407 115.826,296.560 115.622,296.560 115.367 C 296.560 115.115,296.410 114.908,296.228 114.908 C 295.551 114.908,296.320 113.513,297.199 113.146 C 299.748 112.081,301.471 112.354,302.093 113.921 C 302.140 114.040,302.592 114.337,303.096 114.580 C 303.789 114.914,304.082 115.232,304.292 115.874 C 304.444 116.342,304.986 117.142,305.496 117.652 C 306.005 118.161,306.423 118.759,306.423 118.979 C 306.427 120.056,306.907 121.056,307.550 121.322 C 308.872 121.870,309.240 122.517,309.078 124.009 C 308.909 125.571,308.950 125.643,310.373 126.313 C 311.629 126.905,311.859 127.445,311.470 128.891 C 311.326 129.426,311.241 129.885,311.281 129.913 C 311.321 129.941,311.792 130.089,312.329 130.243 C 313.898 130.694,314.648 132.452,313.895 133.909 L 313.520 134.633 314.226 134.633 C 315.191 134.633,316.197 135.194,316.367 135.828 C 317.001 138.195,316.158 139.301,313.813 139.180 L 312.364 139.106 312.432 140.252 L 312.500 141.399 313.589 141.469 L 314.679 141.539 314.679 140.633 C 314.679 139.567,314.834 139.478,316.614 139.528 C 318.273 139.575,318.682 140.014,318.905 141.984 C 319.023 143.023,319.204 143.527,319.589 143.889 C 319.904 144.184,320.177 144.792,320.275 145.413 C 320.448 146.524,321.001 147.566,321.313 147.373 C 322.197 146.827,322.894 148.616,322.370 150.085 C 322.034 151.028,322.092 151.518,322.544 151.547 C 325.110 151.713,326.019 152.655,325.204 154.302 C 324.711 155.299,324.326 155.479,322.821 155.415 C 321.939 155.377,321.898 155.340,321.751 154.465 C 321.652 153.874,321.612 154.261,321.637 155.570 C 321.680 157.865,321.826 158.080,323.280 157.977 L 324.197 157.913 324.119 159.117 L 324.040 160.321 341.463 160.321 L 358.885 160.321 359.026 159.461 C 359.104 158.988,359.102 157.447,359.022 156.037 L 358.877 153.474 357.772 153.322 L 356.667 153.170 356.602 150.954 L 356.537 148.739 355.475 148.670 L 354.414 148.601 354.311 146.631 C 354.197 144.468,353.933 144.037,352.720 144.037 C 352.119 144.037,352.085 143.977,352.019 142.833 L 351.950 141.628 350.860 141.559 L 349.771 141.489 349.768 139.724 C 349.763 137.103,349.683 136.927,348.498 136.927 C 347.594 136.927,347.499 136.872,347.412 136.296 C 347.325 135.720,347.313 135.732,347.282 136.426 C 347.215 137.907,346.172 138.600,344.603 138.207 C 342.717 137.733,343.946 134.551,345.937 134.756 C 346.573 134.821,346.761 134.771,346.638 134.567 C 346.542 134.406,346.641 134.426,346.873 134.615 C 347.247 134.919,347.270 134.857,347.204 133.697 L 347.133 132.454 346.014 132.383 C 345.085 132.324,344.917 132.372,345.029 132.663 C 345.349 133.496,342.803 134.125,341.930 133.429 C 340.291 132.121,341.520 129.923,343.802 130.081 L 344.954 130.161 344.951 129.243 C 344.946 128.029,344.789 127.838,343.635 127.646 C 342.766 127.500,342.661 127.531,342.661 127.930 C 342.661 129.407,339.740 128.591,338.995 126.905 C 338.746 126.343,338.449 125.942,338.334 126.013 C 337.885 126.290,337.500 125.357,337.500 123.990 L 337.500 122.592 336.233 122.455 C 332.510 122.055,332.862 118.062,336.620 118.062 C 337.197 118.062,337.066 117.709,336.239 117.037 C 335.603 116.521,335.465 116.737,336.027 117.367 C 336.364 117.745,336.411 117.858,336.145 117.654 C 335.856 117.431,335.327 117.343,334.583 117.396 C 332.011 117.578,330.700 115.350,332.506 113.867 C 333.086 113.391,332.835 112.793,332.022 112.710 C 331.881 112.696,331.592 112.669,331.380 112.650 C 331.168 112.630,330.767 112.296,330.490 111.906 L 329.985 111.197 330.467 110.716 C 330.946 110.236,330.958 110.236,332.684 110.643 C 333.639 110.868,334.572 111.075,334.758 111.102 C 334.944 111.129,335.224 111.289,335.381 111.458 C 335.555 111.646,335.564 111.708,335.403 111.618 C 335.187 111.497,335.127 112.773,335.303 113.750 C 335.313 113.807,335.445 113.729,335.596 113.578 C 335.748 113.427,336.153 113.303,336.497 113.303 C 337.311 113.303,337.844 112.752,337.844 111.910 C 337.844 111.271,337.892 111.239,338.835 111.239 C 339.379 111.239,340.359 111.080,341.011 110.886 C 342.207 110.531,342.273 110.449,342.481 109.070 C 342.539 108.681,342.707 108.630,343.751 108.686 L 344.954 108.750 344.954 107.586 L 344.954 106.422 346.079 106.422 L 347.205 106.422 347.361 105.287 L 347.517 104.152 348.586 104.083 L 349.656 104.014 349.725 102.936 L 349.795 101.859 350.872 101.790 L 351.950 101.720 352.018 100.659 L 352.087 99.597 353.222 99.447 L 354.358 99.296 354.358 97.454 C 354.358 96.441,354.251 95.412,354.120 95.168 C 353.898 94.753,353.970 94.725,355.267 94.725 L 356.651 94.725 356.651 92.431 L 356.651 90.138 357.511 90.134 C 357.985 90.132,358.502 90.048,358.662 89.946 C 359.034 89.710,359.289 74.215,359.016 68.463 L 358.830 64.564 357.741 64.494 L 356.651 64.424 356.651 62.029 L 356.651 59.633 355.513 59.633 L 354.374 59.633 354.309 57.397 L 354.243 55.161 353.154 55.091 L 352.064 55.021 352.064 53.864 L 352.064 52.708 350.917 52.787 L 349.770 52.867 349.770 51.687 C 349.771 50.390,349.607 50.229,348.283 50.229 C 347.542 50.229,347.516 50.197,347.362 49.083 L 347.205 47.936 346.079 47.936 L 344.954 47.936 344.954 46.789 L 344.954 45.642 343.820 45.642 L 342.686 45.642 342.616 44.553 L 342.546 43.463 340.338 43.398 L 338.130 43.333 337.979 42.194 L 337.828 41.055 334.408 41.055 L 330.988 41.055 330.919 39.966 L 330.849 38.876 329.817 38.721 C 329.249 38.636,316.551 38.558,301.598 38.549 L 274.412 38.532 274.158 37.858 C 273.952 37.311,272.716 36.468,272.123 36.468 C 272.085 36.468,272.207 36.775,272.394 37.150 M325.057 38.998 C 324.459 39.239,324.388 39.571,324.895 39.766 C 325.164 39.869,325.194 40.005,325.018 40.333 C 324.891 40.571,324.835 40.814,324.894 40.873 C 324.954 40.932,324.751 41.095,324.445 41.234 C 323.735 41.558,323.392 41.192,323.318 40.029 C 323.288 39.570,323.113 39.098,322.928 38.981 C 322.702 38.838,323.082 38.772,324.083 38.780 C 325.207 38.788,325.446 38.842,325.057 38.998 M262.393 40.581 C 261.963 41.386,262.100 43.456,262.615 43.922 C 263.070 44.334,263.073 44.323,263.073 42.237 C 263.073 40.169,262.874 39.683,262.393 40.581 M64.299 43.922 C 64.300 44.931,64.340 45.316,64.388 44.776 C 64.437 44.237,64.436 43.411,64.387 42.941 C 64.338 42.471,64.298 42.913,64.299 43.922 M62.448 55.275 C 62.448 55.843,62.493 56.075,62.547 55.791 C 62.602 55.507,62.602 55.043,62.547 54.759 C 62.493 54.475,62.448 54.708,62.448 55.275 M320.084 64.607 C 320.021 64.773,320.081 64.908,320.219 64.908 C 320.384 64.908,320.372 65.025,320.183 65.252 C 320.026 65.442,319.978 65.596,320.076 65.596 C 320.174 65.596,320.068 65.803,319.839 66.055 C 319.555 66.369,319.133 66.514,318.499 66.514 C 317.641 66.514,317.606 66.490,318.018 66.185 C 318.375 65.922,318.406 65.799,318.177 65.566 C 317.847 65.231,317.788 64.818,318.098 65.010 C 318.212 65.080,318.259 64.957,318.202 64.737 C 318.029 64.071,319.255 63.451,319.789 63.934 C 320.015 64.139,320.148 64.441,320.084 64.607 M325.018 65.579 C 325.386 65.947,325.688 66.413,325.688 66.613 C 325.688 66.823,326.078 67.132,326.614 67.347 C 328.420 68.069,328.544 70.028,326.849 71.058 C 326.464 71.293,326.225 71.576,326.320 71.687 C 326.414 71.798,326.315 71.754,326.100 71.590 C 325.288 70.970,324.818 71.388,325.526 72.101 C 326.048 72.627,326.228 72.695,326.503 72.467 C 327.120 71.955,329.178 72.161,329.726 72.789 C 330.189 73.321,330.207 73.551,330.164 78.543 C 330.111 84.692,330.148 84.595,327.798 84.718 L 326.376 84.793 326.376 84.025 C 326.376 82.713,324.720 83.149,324.327 84.565 C 323.993 85.768,324.003 86.180,324.358 85.826 C 324.786 85.397,326.476 85.482,326.876 85.952 C 328.086 87.372,327.841 88.514,326.193 89.144 C 325.458 89.424,325.124 89.717,324.885 90.287 C 324.709 90.709,324.305 91.173,323.986 91.318 C 323.649 91.471,323.301 91.906,323.151 92.358 C 322.631 93.936,320.892 94.141,317.828 92.986 C 317.352 92.807,316.604 92.661,316.165 92.661 C 314.413 92.661,315.870 90.811,318.005 90.325 C 318.415 90.232,318.010 90.189,317.005 90.219 C 315.141 90.275,314.679 90.584,314.679 91.770 L 314.679 92.397 312.672 92.472 C 311.568 92.512,307.337 92.509,303.268 92.465 L 295.872 92.384 295.872 79.564 L 295.872 66.743 307.566 66.743 L 319.261 66.743 319.410 67.678 C 319.523 68.383,319.697 68.666,320.116 68.825 C 320.679 69.040,322.604 69.098,322.076 68.885 C 321.168 68.519,321.951 65.271,322.995 65.070 C 324.088 64.859,324.369 64.930,325.018 65.579 M324.127 72.284 L 324.197 73.509 325.287 73.579 C 326.492 73.656,326.877 73.111,325.807 72.843 C 325.494 72.764,325.082 72.398,324.891 72.030 C 324.291 70.869,324.051 70.949,324.127 72.284 M62.024 82.454 C 62.024 85.103,62.057 86.156,62.098 84.793 C 62.139 83.430,62.138 81.262,62.098 79.976 C 62.057 78.690,62.024 79.805,62.024 82.454 M321.663 88.624 C 321.583 89.053,321.566 89.595,321.626 89.828 C 321.687 90.061,321.749 89.891,321.766 89.450 C 321.800 88.551,321.971 88.204,322.477 88.011 C 322.710 87.922,322.658 87.874,322.315 87.862 C 321.917 87.848,321.779 88.009,321.663 88.624 M263.155 101.720 C 263.154 102.856,263.193 103.349,263.241 102.817 C 263.289 102.284,263.290 101.355,263.242 100.752 C 263.195 100.149,263.156 100.585,263.155 101.720 M343.322 106.930 C 343.202 107.155,343.158 107.339,343.226 107.339 C 343.595 107.339,343.685 107.268,343.616 107.030 C 343.574 106.885,343.616 106.842,343.708 106.935 C 343.801 107.027,344.009 106.924,344.170 106.705 C 344.596 106.127,344.882 106.926,344.528 107.705 C 344.212 108.397,343.772 108.585,342.947 108.378 L 342.317 108.219 342.867 107.925 C 343.305 107.691,343.352 107.589,343.097 107.428 C 342.632 107.134,342.658 106.520,343.135 106.520 C 343.454 106.520,343.494 106.608,343.322 106.930 M344.075 107.231 C 343.930 107.551,343.578 107.905,343.293 108.020 C 342.898 108.179,342.870 108.231,343.177 108.242 C 343.662 108.260,344.495 107.472,344.495 106.995 C 344.495 106.502,344.377 106.569,344.075 107.231 M335.585 115.397 C 335.550 116.249,336.833 117.652,337.279 117.249 C 337.378 117.160,337.381 117.223,337.285 117.388 C 337.187 117.558,337.260 117.858,337.454 118.076 C 337.642 118.289,337.854 118.670,337.924 118.922 C 337.994 119.174,338.025 118.677,337.993 117.817 C 337.929 116.093,337.741 115.835,336.540 115.829 C 335.921 115.826,335.796 115.730,335.715 115.195 C 335.635 114.670,335.613 114.704,335.585 115.397 M300.819 118.505 C 301.173 120.480,302.894 121.042,303.020 119.223 L 303.096 118.119 302.336 118.119 C 301.918 118.119,301.370 118.009,301.118 117.875 C 300.689 117.645,300.671 117.683,300.819 118.505 M338.917 120.793 C 339.715 120.962,340.013 121.525,340.164 123.142 C 340.302 124.618,340.304 124.608,340.279 122.706 L 340.252 120.757 339.335 120.722 C 338.830 120.703,338.642 120.735,338.917 120.793 M303.020 122.477 C 303.098 122.716,303.478 122.829,304.261 122.847 C 305.210 122.869,305.244 122.858,304.475 122.773 C 303.972 122.718,303.414 122.551,303.234 122.403 C 302.974 122.188,302.930 122.203,303.020 122.477 M341.399 125.395 C 342.054 125.556,342.389 125.877,342.501 126.450 C 342.557 126.740,342.611 126.588,342.629 126.089 C 342.660 125.239,342.651 125.230,341.800 125.256 C 341.305 125.271,341.135 125.330,341.399 125.395 M305.337 126.835 C 305.376 127.262,305.536 127.422,305.963 127.462 C 306.448 127.507,306.468 127.486,306.095 127.330 C 305.852 127.228,305.570 126.946,305.468 126.703 C 305.312 126.330,305.291 126.350,305.337 126.835 M223.681 127.666 C 223.514 127.739,223.394 128.212,223.394 128.804 L 223.394 129.817 221.617 129.820 C 218.930 129.824,218.807 129.886,218.807 131.219 L 218.807 132.339 217.682 132.339 L 216.557 132.339 216.399 133.486 C 216.254 134.542,216.192 134.633,215.619 134.633 C 214.457 134.633,214.223 135.027,214.116 137.156 C 214.060 138.270,214.086 138.712,214.176 138.188 C 214.299 137.476,214.438 137.271,214.794 137.271 C 215.046 137.271,215.315 137.186,215.391 137.082 C 216.019 136.226,217.526 137.987,217.467 139.507 C 217.352 142.530,214.327 143.661,214.160 140.744 C 214.116 139.969,214.073 141.296,214.066 143.693 C 214.059 146.089,214.098 147.817,214.153 147.531 C 214.310 146.717,216.284 146.849,217.235 147.737 C 218.388 148.814,217.343 150.554,215.617 150.429 C 215.157 150.396,214.661 150.442,214.515 150.533 C 214.340 150.641,214.218 150.442,214.157 149.947 C 214.106 149.535,214.048 149.937,214.028 150.841 C 213.978 153.061,214.057 153.211,215.277 153.211 L 216.284 153.211 216.284 154.235 C 216.284 155.409,216.654 155.734,217.990 155.734 L 218.807 155.734 218.807 156.881 L 218.807 158.028 219.942 158.028 L 221.076 158.028 221.146 159.117 L 221.216 160.206 223.550 160.272 L 225.884 160.337 226.036 161.025 C 226.334 162.382,226.838 162.500,232.329 162.500 L 237.271 162.500 237.341 161.411 L 237.410 160.321 240.208 160.298 C 243.888 160.268,244.121 160.196,244.266 159.050 C 244.369 158.238,244.454 158.136,245.069 158.079 C 246.733 157.927,246.789 157.880,246.789 156.647 L 246.789 155.505 247.797 155.505 C 249.027 155.505,249.083 155.390,249.083 152.878 L 249.083 150.978 250.033 150.850 C 251.373 150.671,251.369 150.689,251.373 144.807 C 251.377 138.943,251.451 139.220,249.867 139.220 L 249.083 139.220 249.083 136.927 L 249.083 134.633 247.936 134.633 L 246.789 134.633 246.789 133.486 L 246.789 132.339 245.642 132.339 L 244.495 132.339 244.495 131.217 C 244.495 129.959,244.330 129.817,242.871 129.817 C 242.077 129.817,241.972 129.753,241.972 129.269 C 241.972 128.967,241.775 128.477,241.534 128.179 L 241.096 127.638 232.532 127.590 C 227.822 127.563,223.839 127.597,223.681 127.666 M307.662 130.505 C 307.682 131.916,307.714 131.999,308.257 132.068 L 308.830 132.142 308.326 131.777 C 307.945 131.501,307.800 131.120,307.732 130.213 C 307.657 129.219,307.645 129.269,307.662 130.505 M309.970 134.725 C 310.072 136.748,310.196 136.918,311.571 136.923 C 312.471 136.927,312.495 136.595,311.607 136.433 C 310.956 136.313,310.321 135.316,310.087 134.045 C 309.902 133.039,309.889 133.115,309.970 134.725 M346.365 133.800 C 346.580 134.218,346.570 134.241,346.301 133.955 C 346.128 133.772,345.831 133.488,345.642 133.324 C 345.343 133.065,345.351 133.045,345.706 133.169 C 345.930 133.247,346.227 133.531,346.365 133.800 M349.457 141.017 C 349.470 141.515,349.369 141.905,349.224 141.916 C 348.876 141.943,348.126 142.132,347.706 142.299 C 347.501 142.381,347.245 142.251,347.074 141.976 C 346.715 141.401,347.485 140.485,348.176 140.666 C 348.486 140.747,349.287 140.415,349.430 140.145 C 349.433 140.141,349.445 140.533,349.457 141.017 M314.745 144.696 C 314.873 145.826,315.154 146.092,316.227 146.097 C 316.864 146.100,316.972 146.020,316.972 145.546 C 316.972 144.743,317.226 144.163,317.431 144.496 C 317.540 144.672,317.638 144.607,317.717 144.303 C 317.828 143.880,317.710 143.837,316.234 143.768 L 314.631 143.693 314.745 144.696 M317.042 147.821 C 317.082 148.437,317.171 148.513,317.890 148.549 C 318.658 148.587,318.663 148.582,318.015 148.434 C 317.562 148.330,317.281 148.089,317.167 147.706 C 317.009 147.173,317.000 147.181,317.042 147.821 M62.005 150.573 C 62.006 151.583,62.046 151.967,62.095 151.427 C 62.143 150.888,62.143 150.062,62.093 149.593 C 62.044 149.123,62.004 149.564,62.005 150.573 M319.349 151.261 L 319.381 153.096 320.528 153.138 C 321.556 153.175,321.595 153.160,320.908 152.990 C 319.827 152.724,319.679 152.504,319.488 150.872 L 319.318 149.427 319.349 151.261 " stroke="none" fill="#040404" fill-rule="evenodd"></path><path id="path2" d="M272.196 38.569 C 272.035 38.671,271.542 38.759,271.101 38.765 C 270.659 38.771,269.885 39.030,269.381 39.341 C 268.876 39.652,268.297 39.906,268.093 39.907 C 267.889 39.908,267.452 40.121,267.122 40.381 L 266.521 40.853 266.527 68.964 L 266.532 97.075 266.007 98.787 L 265.482 100.499 264.392 100.398 C 263.793 100.342,263.303 100.391,263.303 100.506 C 263.303 100.621,263.432 100.642,263.589 100.553 C 263.819 100.424,263.819 100.453,263.589 100.700 C 262.932 101.409,263.443 105.318,264.249 105.750 C 264.586 105.930,264.679 105.900,264.679 105.612 C 264.679 105.365,264.812 105.287,265.083 105.373 C 265.511 105.508,265.582 105.364,266.929 101.606 L 267.546 99.885 267.607 70.356 L 267.669 40.826 268.661 40.826 C 269.347 40.826,269.776 40.690,270.050 40.388 C 270.268 40.147,270.723 39.881,271.060 39.797 C 271.398 39.713,271.881 39.454,272.133 39.222 C 272.385 38.989,272.901 38.762,273.280 38.717 L 273.968 38.636 273.228 38.510 C 272.821 38.440,272.356 38.467,272.196 38.569 M65.479 38.987 C 65.541 39.087,65.412 39.154,65.192 39.137 C 64.944 39.117,64.805 39.256,64.825 39.504 C 64.842 39.724,64.765 39.847,64.654 39.778 C 64.543 39.710,64.468 40.066,64.488 40.570 L 64.524 41.487 65.580 41.479 C 67.153 41.467,67.968 40.281,67.124 39.233 C 66.921 38.981,66.922 38.941,67.129 39.065 C 67.278 39.155,67.461 39.129,67.535 39.008 C 67.616 38.878,67.198 38.791,66.519 38.797 C 65.886 38.801,65.418 38.887,65.479 38.987 M322.928 38.981 C 323.113 39.098,323.288 39.570,323.318 40.029 C 323.392 41.192,323.735 41.558,324.445 41.234 C 324.751 41.095,324.954 40.932,324.894 40.873 C 324.835 40.814,324.891 40.571,325.018 40.333 C 325.194 40.005,325.164 39.869,324.895 39.766 C 324.388 39.571,324.459 39.239,325.057 38.998 C 325.446 38.842,325.207 38.788,324.083 38.780 C 323.082 38.772,322.702 38.838,322.928 38.981 M62.898 46.558 C 62.747 46.800,62.713 47.052,62.823 47.120 C 63.114 47.300,63.534 46.705,63.339 46.389 C 63.222 46.200,63.090 46.251,62.898 46.558 M318.738 63.949 C 318.320 64.201,318.134 64.475,318.202 64.737 C 318.259 64.957,318.212 65.080,318.098 65.010 C 317.788 64.818,317.847 65.231,318.177 65.566 C 318.406 65.799,318.375 65.922,318.018 66.185 C 317.606 66.490,317.641 66.514,318.499 66.514 C 319.133 66.514,319.555 66.369,319.839 66.055 C 320.068 65.803,320.174 65.596,320.076 65.596 C 319.978 65.596,320.026 65.442,320.183 65.252 C 320.372 65.025,320.384 64.908,320.219 64.908 C 320.081 64.908,320.021 64.773,320.084 64.607 C 320.334 63.955,319.447 63.521,318.738 63.949 M322.995 65.070 C 322.186 65.226,321.789 66.013,321.789 67.458 C 321.789 68.891,321.928 69.037,323.299 69.037 C 324.057 69.037,324.083 69.066,324.083 69.934 C 324.083 71.019,325.074 72.659,325.848 72.853 L 326.376 72.986 326.376 78.889 L 326.376 84.793 327.798 84.718 C 330.148 84.595,330.111 84.692,330.164 78.543 C 330.207 73.551,330.189 73.321,329.726 72.789 C 329.178 72.161,327.120 71.955,326.503 72.467 C 326.228 72.695,326.048 72.627,325.526 72.101 C 324.818 71.388,325.288 70.970,326.100 71.590 C 326.315 71.754,326.414 71.798,326.320 71.687 C 326.225 71.576,326.464 71.293,326.849 71.058 C 328.544 70.028,328.420 68.069,326.614 67.347 C 326.078 67.132,325.688 66.823,325.688 66.613 C 325.688 66.098,324.430 64.902,323.928 64.939 C 323.698 64.957,323.278 65.015,322.995 65.070 M324.358 85.826 C 324.206 85.977,324.083 86.480,324.083 86.942 C 324.083 87.755,324.051 87.788,323.132 87.911 C 322.058 88.055,321.798 88.337,321.793 89.359 L 321.789 90.070 319.659 90.197 C 318.037 90.294,317.325 90.445,316.672 90.831 C 315.206 91.696,314.938 92.661,316.165 92.661 C 316.604 92.661,317.352 92.807,317.828 92.986 C 320.892 94.141,322.631 93.936,323.151 92.358 C 323.301 91.906,323.649 91.471,323.986 91.318 C 324.305 91.173,324.709 90.709,324.885 90.287 C 325.124 89.717,325.458 89.424,326.193 89.144 C 327.841 88.514,328.086 87.372,326.876 85.952 C 326.476 85.482,324.786 85.397,324.358 85.826 M309.464 92.596 C 309.813 92.648,310.329 92.647,310.611 92.593 C 310.893 92.538,310.608 92.495,309.977 92.497 C 309.346 92.499,309.116 92.543,309.464 92.596 M342.752 106.873 C 342.765 107.066,342.920 107.316,343.097 107.428 C 343.352 107.589,343.305 107.693,342.867 107.935 C 342.564 108.103,342.452 108.244,342.617 108.249 C 342.782 108.253,342.862 108.347,342.794 108.456 C 342.726 108.566,343.002 108.588,343.407 108.505 C 344.259 108.331,344.893 107.419,344.632 106.745 C 344.473 106.333,344.445 106.331,344.170 106.705 C 344.009 106.924,343.801 107.027,343.708 106.935 C 343.616 106.842,343.574 106.885,343.616 107.030 C 343.685 107.268,343.595 107.339,343.226 107.339 C 343.158 107.339,343.202 107.155,343.322 106.930 C 343.494 106.608,343.454 106.520,343.135 106.520 C 342.911 106.520,342.739 106.679,342.752 106.873 M344.495 106.995 C 344.495 107.472,343.662 108.260,343.177 108.242 C 342.870 108.231,342.898 108.179,343.293 108.020 C 343.578 107.905,343.930 107.551,344.075 107.231 C 344.377 106.569,344.495 106.502,344.495 106.995 M330.401 110.767 C 329.935 111.283,330.609 112.580,331.380 112.650 C 331.592 112.669,331.881 112.696,332.022 112.710 C 332.835 112.793,333.086 113.391,332.506 113.867 C 330.700 115.350,332.011 117.578,334.583 117.396 C 335.327 117.343,335.856 117.431,336.145 117.654 C 336.411 117.858,336.364 117.745,336.027 117.367 C 335.465 116.737,335.603 116.521,336.239 117.037 C 337.066 117.709,337.197 118.062,336.620 118.062 C 332.862 118.062,332.510 122.055,336.233 122.455 L 337.500 122.592 337.500 123.990 C 337.500 125.357,337.885 126.290,338.334 126.013 C 338.449 125.942,338.746 126.343,338.995 126.905 C 339.609 128.295,340.282 128.704,341.644 128.517 L 342.716 128.370 342.582 127.234 C 342.419 125.860,342.188 125.550,341.187 125.362 C 340.311 125.198,340.146 124.832,340.141 123.044 C 340.137 121.684,339.718 120.983,338.801 120.799 C 338.202 120.679,338.121 120.552,337.985 119.532 C 337.902 118.908,337.677 118.266,337.485 118.107 C 337.292 117.947,337.188 117.679,337.252 117.512 C 337.316 117.344,337.295 117.231,337.205 117.260 C 336.921 117.352,336.004 116.595,336.183 116.417 C 336.276 116.323,336.198 116.281,336.009 116.323 C 335.745 116.381,335.650 116.132,335.601 115.252 C 335.566 114.622,335.475 113.951,335.399 113.761 C 335.125 113.076,335.128 111.463,335.403 111.628 C 335.547 111.715,335.521 111.608,335.346 111.392 C 335.170 111.175,334.984 111.040,334.932 111.092 C 334.880 111.144,334.095 110.994,333.187 110.758 C 331.113 110.219,330.897 110.220,330.401 110.767 M298.946 112.622 C 297.252 112.958,296.411 113.430,296.144 114.196 C 295.940 114.779,295.956 114.908,296.228 114.908 C 296.410 114.908,296.560 115.115,296.560 115.367 C 296.560 115.792,296.713 115.826,298.624 115.826 L 300.688 115.826 300.688 116.735 C 300.688 117.773,301.101 118.120,302.336 118.119 L 303.096 118.118 303.022 120.081 C 302.935 122.371,303.109 122.706,304.386 122.706 L 305.275 122.706 305.275 124.412 C 305.275 126.750,305.497 127.250,306.615 127.429 C 307.567 127.581,307.789 128.189,307.796 130.664 C 307.798 131.478,308.467 132.110,309.326 132.110 C 309.759 132.110,309.856 132.272,309.982 133.200 C 310.280 135.410,310.783 136.317,311.812 136.504 C 312.187 136.571,312.292 136.816,312.385 137.846 L 312.500 139.106 313.890 139.173 C 316.165 139.283,316.993 138.165,316.367 135.828 C 316.197 135.194,315.191 134.633,314.226 134.633 L 313.520 134.633 313.895 133.909 C 314.648 132.452,313.898 130.694,312.329 130.243 C 311.792 130.089,311.321 129.941,311.281 129.913 C 311.241 129.885,311.326 129.426,311.470 128.891 C 311.859 127.445,311.629 126.905,310.373 126.313 C 308.950 125.643,308.909 125.571,309.078 124.009 C 309.240 122.517,308.872 121.870,307.550 121.322 C 306.907 121.056,306.427 120.056,306.423 118.979 C 306.423 118.759,306.005 118.161,305.496 117.652 C 304.986 117.142,304.444 116.342,304.292 115.874 C 304.082 115.232,303.789 114.914,303.096 114.580 C 302.592 114.337,302.143 114.049,302.100 113.941 C 302.056 113.833,301.763 113.439,301.448 113.065 C 300.851 112.355,300.555 112.303,298.946 112.622 M342.037 130.437 C 340.516 131.766,341.224 133.716,343.227 133.716 C 344.781 133.716,345.092 133.338,344.956 131.620 L 344.839 130.161 343.674 130.093 C 342.809 130.042,342.387 130.131,342.037 130.437 M345.642 133.324 C 345.831 133.488,346.128 133.772,346.301 133.955 C 346.570 134.241,346.580 134.218,346.365 133.800 C 346.227 133.531,345.930 133.247,345.706 133.169 C 345.351 133.045,345.343 133.065,345.642 133.324 M346.638 134.567 C 346.761 134.771,346.573 134.821,345.937 134.756 C 343.946 134.551,342.717 137.733,344.603 138.207 C 345.471 138.425,346.752 138.113,347.016 137.620 C 347.402 136.897,347.302 134.963,346.860 134.604 C 346.619 134.408,346.535 134.394,346.638 134.567 M215.367 137.117 C 215.367 137.221,215.136 137.299,214.854 137.289 C 213.830 137.252,213.814 142.071,214.838 142.267 C 216.693 142.621,218.047 140.362,217.329 138.110 C 217.129 137.483,215.367 136.592,215.367 137.117 M314.943 139.657 C 314.745 139.780,314.679 140.414,314.726 141.763 L 314.794 143.693 316.309 143.807 C 317.711 143.913,317.811 143.956,317.644 144.381 C 317.525 144.682,317.457 144.721,317.444 144.495 C 317.391 143.567,316.981 144.940,316.999 145.986 C 317.031 147.910,317.207 148.244,318.300 148.460 C 318.831 148.565,319.271 148.722,319.276 148.809 C 319.481 152.032,319.878 152.982,321.020 152.982 C 321.532 152.982,321.626 153.210,321.863 155.038 C 321.892 155.261,322.213 155.387,322.823 155.414 C 324.325 155.479,324.711 155.299,325.204 154.302 C 326.019 152.655,325.110 151.713,322.544 151.547 C 322.092 151.518,322.034 151.028,322.370 150.085 C 322.894 148.616,322.197 146.827,321.313 147.373 C 321.001 147.566,320.448 146.524,320.275 145.413 C 320.177 144.792,319.904 144.184,319.589 143.889 C 319.204 143.527,319.023 143.023,318.905 141.984 C 318.681 140.006,318.279 139.581,316.581 139.526 C 315.836 139.502,315.099 139.561,314.943 139.657 M349.015 140.465 C 348.788 140.637,348.410 140.727,348.176 140.666 C 347.485 140.485,346.715 141.401,347.074 141.976 C 347.245 142.251,347.501 142.381,347.706 142.299 C 348.126 142.132,348.876 141.943,349.224 141.916 C 349.369 141.905,349.470 141.515,349.457 141.017 C 349.445 140.533,349.433 140.141,349.430 140.145 C 349.428 140.149,349.241 140.293,349.015 140.465 M214.132 147.744 C 213.929 148.761,214.209 150.722,214.529 150.524 C 214.668 150.439,215.157 150.396,215.617 150.429 C 217.343 150.554,218.388 148.814,217.235 147.737 C 216.143 146.717,214.337 146.721,214.132 147.744 " stroke="none" fill="#101014" fill-rule="evenodd"></path><path id="path3" d="M264.794 36.455 C 264.541 36.557,264.251 36.591,264.148 36.531 C 264.044 36.471,263.993 36.613,264.033 36.846 C 264.086 37.157,263.983 37.254,263.647 37.207 C 263.194 37.144,263.194 37.148,263.633 37.494 C 264.027 37.803,263.974 37.945,263.489 37.876 C 263.066 37.816,263.061 100.034,263.484 100.175 C 263.722 100.254,263.724 100.349,263.495 100.653 C 263.255 100.973,263.261 100.987,263.532 100.745 C 263.709 100.588,264.220 100.458,264.667 100.457 C 265.479 100.455,265.484 100.449,266.007 98.765 L 266.532 97.075 266.527 68.964 L 266.521 40.853 267.122 40.381 C 267.452 40.121,267.889 39.908,268.093 39.907 C 268.297 39.907,268.825 39.682,269.266 39.407 C 270.037 38.928,271.755 38.513,272.914 38.527 C 273.454 38.533,273.457 38.523,273.046 38.068 C 272.721 37.709,272.579 37.670,272.422 37.896 C 272.292 38.081,272.274 37.988,272.372 37.643 C 272.476 37.276,272.444 37.149,272.275 37.254 C 272.112 37.355,272.077 37.270,272.175 37.013 C 272.292 36.710,272.238 36.652,271.943 36.765 C 271.732 36.846,271.560 36.823,271.560 36.714 C 271.560 36.605,271.149 36.477,270.648 36.429 C 270.147 36.381,269.813 36.418,269.905 36.511 C 270.411 37.017,269.912 38.713,269.216 38.852 C 267.964 39.102,265.818 39.012,265.717 38.704 C 265.472 37.952,265.451 36.477,265.685 36.380 C 265.825 36.322,265.786 36.274,265.596 36.273 C 265.407 36.272,265.046 36.354,264.794 36.455 M163.685 38.914 C 163.601 38.998,163.532 39.170,163.532 39.297 C 163.532 39.423,163.600 39.458,163.683 39.375 C 163.766 39.292,163.989 39.352,164.179 39.509 C 164.480 39.757,164.489 39.727,164.250 39.278 C 163.949 38.713,163.911 38.689,163.685 38.914 M63.419 47.246 C 63.190 47.499,63.109 47.706,63.239 47.706 C 63.528 47.706,64.100 47.051,63.946 46.897 C 63.885 46.836,63.648 46.993,63.419 47.246 M63.993 47.589 C 63.650 48.003,63.869 48.726,64.265 48.482 C 64.478 48.350,64.479 48.289,64.268 48.219 C 64.071 48.154,64.060 48.005,64.230 47.688 C 64.511 47.163,64.389 47.112,63.993 47.589 M63.377 51.663 C 63.121 51.947,62.836 52.334,62.744 52.523 C 62.651 52.712,62.779 52.615,63.029 52.308 C 63.279 52.001,63.669 51.614,63.896 51.448 C 64.122 51.282,64.203 51.147,64.075 51.147 C 63.946 51.147,63.632 51.379,63.377 51.663 M157.825 52.608 C 157.802 53.181,157.751 53.228,157.437 52.967 C 157.151 52.730,157.038 52.727,156.900 52.951 C 156.803 53.107,156.630 53.204,156.516 53.166 C 156.295 53.092,156.193 53.266,156.193 53.710 C 156.193 53.858,156.433 53.754,156.726 53.478 C 157.019 53.203,157.329 53.047,157.414 53.132 C 157.700 53.419,157.572 53.637,157.074 53.711 C 156.694 53.767,156.574 53.951,156.558 54.497 C 156.537 55.193,156.549 55.202,157.050 54.841 C 157.593 54.451,158.123 52.979,157.953 52.334 C 157.897 52.122,157.839 52.246,157.825 52.608 M62.960 53.670 C 63.287 55.926,63.426 56.357,63.606 55.672 C 63.704 55.299,63.662 54.830,63.506 54.539 C 63.359 54.265,63.151 53.776,63.042 53.454 C 62.877 52.966,62.863 53.003,62.960 53.670 M62.236 62.844 C 62.236 63.916,62.276 64.355,62.324 63.819 C 62.372 63.283,62.372 62.405,62.324 61.869 C 62.276 61.333,62.236 61.772,62.236 62.844 M264.272 93.476 C 265.037 92.940,265.639 93.401,265.552 94.453 C 265.482 95.295,265.478 95.298,264.392 95.318 L 263.303 95.338 263.303 94.477 C 263.303 93.369,263.604 92.511,263.718 93.293 C 263.788 93.770,263.832 93.784,264.272 93.476 " stroke="none" fill="#ccaca4" fill-rule="evenodd"></path><path id="path4" d="M175.459 0.522 C 175.459 1.838,176.724 2.513,177.395 1.554 C 178.137 0.496,177.885 0.000,176.606 0.000 C 175.565 0.000,175.459 0.048,175.459 0.522 M140.976 2.942 C 140.204 3.795,141.131 5.004,141.972 4.243 C 142.541 3.728,142.551 3.391,142.012 2.903 C 141.487 2.428,141.440 2.429,140.976 2.942 M246.147 9.908 C 245.734 10.321,245.815 10.963,246.314 11.230 C 246.874 11.529,247.418 11.326,247.602 10.748 C 247.874 9.891,246.790 9.265,246.147 9.908 M91.782 14.752 L 91.282 15.285 91.810 15.781 C 92.298 16.239,92.378 16.250,92.844 15.924 C 93.459 15.493,93.484 15.102,92.929 14.600 C 92.394 14.116,92.378 14.118,91.782 14.752 M14.600 16.933 C 14.113 17.471,14.121 17.729,14.640 18.198 C 15.179 18.686,15.256 18.678,15.816 18.076 L 16.284 17.575 15.785 17.044 C 15.184 16.404,15.087 16.395,14.600 16.933 M295.169 21.817 C 294.809 22.489,295.657 23.412,296.276 23.023 C 296.783 22.704,296.906 22.092,296.550 21.663 C 296.149 21.180,295.469 21.255,295.169 21.817 M119.847 26.368 C 119.004 27.300,120.228 28.337,121.090 27.420 L 121.601 26.876 121.122 26.397 C 120.528 25.804,120.361 25.800,119.847 26.368 M105.884 28.630 C 105.027 29.578,106.071 30.685,106.999 29.813 L 107.571 29.275 107.071 28.743 C 106.469 28.102,106.371 28.092,105.884 28.630 M211.159 28.630 C 210.388 29.483,211.315 30.693,212.156 29.931 C 212.725 29.416,212.735 29.079,212.195 28.591 C 211.671 28.116,211.624 28.118,211.159 28.630 M140.835 33.361 C 140.470 33.800,140.732 34.572,141.307 34.755 C 142.172 35.029,142.803 33.950,142.156 33.303 C 141.783 32.929,141.170 32.956,140.835 33.361 M295.315 35.761 C 294.569 36.585,295.727 37.668,296.514 36.881 C 296.927 36.467,296.845 35.826,296.345 35.559 C 295.769 35.250,295.780 35.248,295.315 35.761 M351.507 35.682 C 351.057 36.131,351.048 36.559,351.480 36.917 C 352.308 37.605,353.367 36.586,352.650 35.793 C 352.137 35.226,351.978 35.211,351.507 35.682 M379.465 35.789 C 379.052 36.245,379.055 36.269,379.613 36.827 L 380.184 37.398 380.685 36.864 C 381.147 36.372,381.159 36.292,380.832 35.826 C 380.392 35.197,380.009 35.187,379.465 35.789 M265.685 36.380 C 265.451 36.477,265.472 37.952,265.717 38.704 C 265.818 39.012,267.964 39.102,269.216 38.852 C 269.948 38.705,270.401 37.006,269.853 36.459 C 269.636 36.241,266.180 36.176,265.685 36.380 M263.306 36.730 C 263.303 37.129,263.902 37.486,264.083 37.192 C 264.142 37.097,264.095 36.869,263.979 36.686 C 263.797 36.398,263.768 36.399,263.761 36.697 C 263.755 37.003,263.730 37.003,263.532 36.697 C 263.339 36.399,263.309 36.403,263.306 36.730 M185.471 38.034 C 185.263 38.265,185.092 38.497,185.092 38.550 C 185.092 38.603,187.091 38.647,189.535 38.647 C 194.020 38.647,194.613 38.521,193.337 37.838 C 192.508 37.394,185.901 37.559,185.471 38.034 M97.881 38.694 C 98.166 38.749,98.579 38.747,98.799 38.690 C 99.018 38.632,98.784 38.587,98.280 38.590 C 97.775 38.592,97.596 38.639,97.881 38.694 M198.027 38.698 C 197.210 38.773,197.096 38.851,197.157 39.289 C 197.195 39.567,197.274 41.445,197.332 43.463 C 197.443 47.357,197.550 47.981,198.069 47.782 C 198.446 47.638,198.535 48.510,198.168 48.737 C 198.038 48.817,197.999 48.725,198.078 48.521 C 198.153 48.325,198.100 48.165,197.960 48.165 C 197.792 48.165,197.713 48.878,197.725 50.287 C 197.734 51.454,197.795 52.279,197.859 52.120 C 197.923 51.962,198.069 51.890,198.185 51.962 C 198.300 52.033,198.394 51.924,198.394 51.720 C 198.394 51.516,198.313 51.399,198.214 51.460 C 198.115 51.522,198.034 51.373,198.034 51.130 C 198.034 50.826,198.193 50.688,198.545 50.688 C 198.826 50.688,199.126 50.574,199.212 50.434 C 199.559 49.874,199.732 50.848,199.643 52.852 C 199.571 54.464,199.600 54.751,199.771 54.128 C 199.893 53.685,199.984 50.070,199.975 46.060 C 199.958 38.646,199.926 38.362,199.121 38.572 C 199.037 38.594,198.545 38.651,198.027 38.698 M100.000 39.040 C 100.000 39.139,100.146 39.220,100.325 39.220 C 100.504 39.220,100.843 39.485,101.079 39.809 C 101.463 40.336,101.507 40.350,101.507 39.940 C 101.507 39.689,101.438 39.526,101.353 39.579 C 101.171 39.691,100.645 39.110,100.794 38.962 C 100.850 38.906,100.694 38.860,100.448 38.860 C 100.202 38.860,100.000 38.941,100.000 39.040 M56.690 40.440 L 56.190 40.973 56.762 41.510 C 57.318 42.032,57.348 42.036,57.796 41.631 C 58.367 41.114,58.378 40.777,57.837 40.288 C 57.303 39.804,57.286 39.806,56.690 40.440 M101.392 41.456 C 101.455 42.129,101.804 42.504,101.819 41.915 C 101.828 41.568,101.732 41.284,101.606 41.284 C 101.479 41.284,101.383 41.362,101.392 41.456 M101.735 44.382 C 101.493 45.670,101.923 46.090,103.515 46.119 C 103.874 46.126,103.890 46.181,103.630 46.502 C 103.452 46.722,103.436 46.811,103.593 46.717 C 103.740 46.629,103.915 46.686,103.983 46.845 C 104.113 47.151,103.977 45.948,103.762 44.897 C 103.481 43.520,101.969 43.136,101.735 44.382 M102.982 44.037 C 103.232 44.198,103.244 44.260,103.025 44.263 C 102.860 44.264,102.790 44.371,102.869 44.499 C 102.949 44.627,103.109 44.673,103.227 44.600 C 103.586 44.378,103.465 44.632,103.019 45.035 C 102.624 45.393,102.570 45.385,102.159 44.917 C 101.918 44.642,101.842 44.488,101.991 44.574 C 102.140 44.661,102.327 44.627,102.406 44.499 C 102.485 44.371,102.435 44.266,102.294 44.266 C 102.153 44.266,102.101 44.163,102.179 44.037 C 102.355 43.752,102.541 43.752,102.982 44.037 M199.312 47.932 C 199.312 48.195,198.633 49.771,198.520 49.771 C 198.466 49.771,198.456 49.487,198.497 49.140 C 198.538 48.793,198.583 48.280,198.598 48.000 C 198.622 47.526,199.312 47.460,199.312 47.932 M104.706 50.975 C 104.735 51.330,104.874 51.468,105.149 51.418 C 105.401 51.373,105.491 51.442,105.390 51.606 C 105.295 51.759,105.426 51.917,105.708 51.991 C 105.972 52.060,106.130 52.210,106.059 52.324 C 105.989 52.438,105.629 52.316,105.259 52.053 C 104.890 51.790,104.586 51.659,104.584 51.762 C 104.582 51.865,104.480 51.795,104.358 51.606 C 104.188 51.343,104.135 51.433,104.132 51.982 C 104.130 52.425,104.266 52.756,104.484 52.840 C 104.706 52.925,104.782 52.882,104.686 52.727 C 104.580 52.555,104.683 52.558,105.018 52.737 C 105.339 52.909,105.505 52.917,105.505 52.760 C 105.505 52.630,105.582 52.535,105.677 52.550 C 106.185 52.630,106.354 52.456,106.372 51.831 C 106.383 51.450,106.307 51.191,106.203 51.255 C 106.100 51.319,106.029 51.204,106.047 50.999 C 106.064 50.795,105.897 50.598,105.676 50.563 C 105.454 50.528,105.327 50.586,105.393 50.692 C 105.458 50.799,105.407 50.951,105.279 51.030 C 105.151 51.109,105.046 51.013,105.046 50.816 C 105.046 50.620,104.960 50.459,104.855 50.459 C 104.750 50.459,104.683 50.691,104.706 50.975 M106.790 57.607 C 106.844 57.695,106.782 57.832,106.651 57.913 C 106.521 57.993,106.485 58.173,106.571 58.312 C 106.666 58.465,106.803 58.359,106.921 58.041 C 107.090 57.583,107.164 57.556,107.500 57.829 C 107.713 58.001,107.814 58.022,107.726 57.875 C 107.638 57.728,107.696 57.562,107.854 57.505 C 108.013 57.448,107.816 57.412,107.417 57.425 C 107.018 57.437,106.736 57.519,106.790 57.607 M108.824 62.395 C 108.743 62.527,108.786 62.767,108.920 62.928 C 109.094 63.138,109.083 63.303,108.882 63.505 C 108.660 63.730,108.684 63.757,109.001 63.636 C 109.287 63.527,109.462 63.637,109.617 64.024 C 109.785 64.443,109.837 64.471,109.848 64.149 C 109.856 63.921,109.941 63.783,110.037 63.842 C 110.570 64.171,111.191 62.996,110.760 62.476 C 110.408 62.052,110.072 62.067,110.237 62.498 C 110.311 62.690,110.214 62.900,110.015 62.976 C 109.811 63.054,109.713 63.273,109.784 63.494 C 109.855 63.719,109.710 63.641,109.430 63.303 C 108.909 62.674,108.794 62.265,109.210 62.522 C 109.374 62.623,109.412 62.585,109.311 62.421 C 109.109 62.094,109.014 62.089,108.824 62.395 M110.504 63.292 C 110.187 63.799,109.964 63.736,110.171 63.198 C 110.246 63.003,110.414 62.844,110.545 62.844 C 110.696 62.844,110.681 63.009,110.504 63.292 M0.000 64.335 C 0.000 65.568,0.878 65.813,1.796 64.835 L 2.296 64.303 1.764 63.803 C 0.785 62.883,0.000 63.120,0.000 64.335 M151.886 65.006 C 151.911 65.313,152.021 65.509,152.129 65.442 C 152.236 65.375,152.267 65.171,152.197 64.988 C 152.116 64.778,152.166 64.715,152.332 64.817 C 152.493 64.917,152.531 64.877,152.430 64.714 C 152.148 64.258,151.838 64.425,151.886 65.006 M152.661 64.814 C 152.494 65.250,152.675 65.603,153.053 65.578 C 153.251 65.565,153.248 65.529,153.041 65.445 C 152.834 65.361,152.820 65.210,152.992 64.890 C 153.128 64.635,153.137 64.450,153.014 64.450 C 152.897 64.450,152.738 64.614,152.661 64.814 M150.996 65.722 C 150.918 65.925,151.044 66.227,151.290 66.427 C 151.527 66.620,151.602 66.718,151.458 66.647 C 151.313 66.575,151.136 66.671,151.063 66.859 C 150.827 67.476,151.577 67.227,151.933 66.571 C 152.226 66.031,152.279 66.006,152.301 66.399 L 152.326 66.858 152.510 66.399 C 152.774 65.744,152.591 65.575,151.940 65.872 C 151.311 66.158,150.851 65.924,151.383 65.587 C 151.622 65.436,151.635 65.373,151.426 65.370 C 151.265 65.369,151.071 65.527,150.996 65.722 M140.872 66.101 C 140.484 66.488,140.529 66.840,141.022 67.286 C 141.520 67.737,142.125 67.577,142.327 66.940 C 142.599 66.083,141.514 65.458,140.872 66.101 M199.369 68.020 C 199.212 68.190,199.051 68.537,199.012 68.792 C 198.973 69.046,198.875 69.321,198.793 69.403 C 198.711 69.485,198.693 69.281,198.753 68.950 C 198.866 68.329,198.568 68.173,197.980 68.546 C 197.607 68.782,197.678 73.664,198.050 73.443 C 198.177 73.368,198.125 73.497,197.936 73.730 C 197.525 74.236,197.296 150.964,197.703 151.606 C 197.882 151.887,198.004 151.898,198.378 151.667 C 198.760 151.430,198.873 151.449,199.066 151.781 C 199.281 152.151,199.298 152.148,199.305 151.749 C 199.311 151.397,199.373 151.370,199.650 151.600 C 199.947 151.847,199.984 147.066,199.958 111.663 C 199.942 89.543,199.857 72.013,199.770 72.706 C 199.642 73.730,199.578 73.868,199.431 73.435 C 199.253 72.911,199.243 72.915,198.891 73.642 C 198.535 74.378,198.195 74.196,198.523 73.444 C 198.617 73.228,198.672 72.870,198.645 72.649 C 198.617 72.428,198.704 72.248,198.836 72.248 C 198.969 72.248,199.053 72.015,199.023 71.732 C 198.979 71.320,199.072 71.227,199.484 71.270 C 199.974 71.322,200.000 71.246,199.996 69.779 C 199.993 68.038,199.815 67.540,199.369 68.020 M199.689 69.843 C 199.659 70.363,199.627 70.381,199.369 70.029 C 199.120 69.688,199.278 69.313,199.689 69.270 C 199.707 69.268,199.707 69.526,199.689 69.843 M113.188 70.413 C 113.188 70.791,113.279 71.101,113.390 71.101 C 113.501 71.101,113.534 71.460,113.463 71.899 L 113.333 72.697 113.891 72.095 C 114.567 71.366,114.573 71.284,113.991 70.757 C 113.739 70.529,113.532 70.203,113.532 70.033 C 113.532 69.864,113.455 69.725,113.360 69.725 C 113.265 69.725,113.188 70.034,113.188 70.413 M211.112 70.885 C 210.586 71.466,210.899 72.133,211.697 72.133 C 212.495 72.133,212.808 71.466,212.283 70.885 C 211.751 70.298,211.643 70.298,211.112 70.885 M253.094 70.874 C 252.689 71.322,252.693 71.352,253.219 71.912 L 253.761 72.490 254.332 71.919 C 254.890 71.361,254.893 71.337,254.480 70.880 C 253.948 70.292,253.622 70.291,253.094 70.874 M113.926 74.245 C 113.993 74.419,114.102 74.507,114.169 74.440 C 114.235 74.374,114.436 74.498,114.616 74.717 C 114.795 74.936,114.873 74.979,114.788 74.813 C 114.700 74.643,114.818 74.366,115.057 74.179 C 115.365 73.938,115.387 73.863,115.138 73.907 C 114.948 73.941,114.718 74.071,114.625 74.197 C 114.516 74.346,114.455 74.339,114.453 74.178 C 114.451 74.041,114.305 73.930,114.127 73.930 C 113.948 73.930,113.859 74.070,113.926 74.245 M199.070 74.852 C 198.849 75.056,198.819 75.021,198.934 74.695 C 199.016 74.463,199.095 74.154,199.109 74.006 C 199.124 73.859,199.185 73.930,199.245 74.164 C 199.306 74.398,199.227 74.708,199.070 74.852 M140.976 75.419 C 140.204 76.272,141.131 77.481,141.972 76.720 C 142.541 76.205,142.551 75.868,142.012 75.380 C 141.487 74.905,141.440 74.907,140.976 75.419 M253.215 75.569 L 252.711 76.106 253.190 76.585 C 253.781 77.176,253.951 77.181,254.455 76.625 C 255.281 75.712,254.058 74.671,253.215 75.569 M372.488 75.562 L 371.977 76.106 372.456 76.585 C 373.050 77.178,373.217 77.182,373.731 76.614 C 374.574 75.682,373.350 74.645,372.488 75.562 M386.507 75.532 L 386.007 76.064 386.579 76.602 C 387.134 77.124,387.165 77.128,387.612 76.722 C 388.184 76.205,388.194 75.868,387.654 75.380 C 387.119 74.895,387.103 74.898,386.507 75.532 M147.643 76.615 C 147.710 76.873,147.674 77.067,147.564 77.047 C 147.092 76.960,146.929 77.088,147.248 77.294 C 147.544 77.485,147.538 77.516,147.204 77.519 C 146.991 77.521,146.752 77.420,146.674 77.294 C 146.596 77.167,146.648 77.064,146.789 77.064 C 146.930 77.064,146.972 76.945,146.882 76.799 C 146.780 76.635,146.819 76.597,146.983 76.698 C 147.129 76.788,147.248 76.753,147.248 76.619 C 147.248 76.219,146.822 76.344,146.568 76.820 C 146.289 77.340,146.259 77.764,146.502 77.725 C 147.155 77.622,147.308 77.775,146.890 78.113 C 146.645 78.312,146.574 78.409,146.732 78.329 C 147.141 78.122,147.086 78.439,146.617 78.992 C 146.231 79.446,146.232 79.452,146.639 79.135 C 146.872 78.954,147.275 78.773,147.534 78.734 C 148.165 78.638,148.608 78.013,148.617 77.208 C 148.623 76.648,148.572 76.592,148.280 76.835 C 147.999 77.068,147.936 77.055,147.936 76.767 C 147.936 76.573,148.065 76.362,148.222 76.299 C 148.380 76.235,148.287 76.175,148.015 76.165 C 147.626 76.151,147.546 76.247,147.643 76.615 M146.154 80.734 C 146.154 81.175,146.201 81.356,146.259 81.135 C 146.317 80.915,146.317 80.553,146.259 80.333 C 146.201 80.112,146.154 80.292,146.154 80.734 M211.049 82.641 C 210.319 83.419,210.356 85.078,211.124 85.939 L 211.697 86.583 212.271 85.939 C 213.062 85.051,213.084 83.333,212.313 82.609 C 211.657 81.992,211.658 81.992,211.049 82.641 M144.856 83.200 C 144.970 83.294,145.128 83.458,145.206 83.563 C 145.285 83.668,145.412 83.591,145.488 83.391 C 145.589 83.129,145.491 83.028,145.138 83.028 C 144.869 83.028,144.742 83.105,144.856 83.200 M118.439 83.651 C 118.686 83.714,118.771 83.827,118.636 83.911 C 118.498 83.998,118.651 84.245,119.004 84.503 L 119.610 84.946 119.173 84.445 C 118.933 84.170,118.843 83.945,118.973 83.945 C 119.382 83.945,119.783 84.610,119.624 85.024 C 119.540 85.243,119.544 85.349,119.633 85.260 C 119.721 85.172,119.932 85.278,120.100 85.497 C 120.361 85.835,120.369 85.775,120.155 85.092 C 119.852 84.129,119.167 83.476,118.495 83.513 C 118.061 83.536,118.054 83.552,118.439 83.651 M118.575 85.645 C 118.889 85.823,119.224 85.920,119.321 85.861 C 119.417 85.801,119.495 85.862,119.495 85.996 C 119.495 86.129,119.599 86.239,119.725 86.239 C 120.561 86.239,119.662 85.593,118.578 85.415 L 118.005 85.321 118.575 85.645 M379.608 87.135 C 379.017 87.726,379.011 87.896,379.568 88.400 C 380.481 89.226,381.521 88.003,380.623 87.160 L 380.087 86.656 379.608 87.135 M120.768 88.475 C 120.645 88.797,120.672 88.819,120.904 88.589 C 121.393 88.104,121.658 88.273,121.200 88.778 C 120.879 89.133,120.856 89.235,121.107 89.180 C 121.302 89.137,121.415 89.244,121.375 89.431 C 121.314 89.712,121.359 89.712,121.704 89.431 C 122.062 89.140,122.087 89.151,121.941 89.539 C 121.803 89.908,121.831 89.929,122.128 89.683 C 122.589 89.300,122.569 89.082,122.018 88.532 C 121.453 87.967,120.970 87.944,120.768 88.475 M143.489 88.398 C 143.615 88.730,143.581 88.790,143.349 88.647 C 143.125 88.509,143.081 88.559,143.185 88.832 C 143.273 89.062,143.177 89.297,142.938 89.437 C 142.722 89.562,142.673 89.668,142.827 89.672 C 143.315 89.684,143.921 88.554,143.598 88.234 C 143.382 88.019,143.358 88.055,143.489 88.398 M122.093 88.854 C 122.201 89.136,122.034 89.172,121.374 89.008 C 121.335 88.999,121.367 88.888,121.445 88.761 C 121.647 88.435,121.948 88.478,122.093 88.854 M120.638 90.080 C 120.775 90.364,120.970 90.596,121.070 90.596 C 121.171 90.596,121.386 90.846,121.550 91.151 C 121.736 91.499,121.986 91.664,122.219 91.593 C 122.514 91.503,122.507 91.534,122.186 91.740 C 121.962 91.883,121.839 92.098,121.912 92.216 C 121.986 92.334,121.936 92.431,121.803 92.431 C 121.669 92.431,121.560 92.525,121.560 92.639 C 121.560 92.753,121.754 92.796,121.992 92.734 C 122.231 92.672,122.496 92.735,122.583 92.876 C 122.672 93.020,122.609 93.103,122.437 93.068 C 122.269 93.033,122.167 93.158,122.209 93.348 C 122.251 93.537,122.275 95.019,122.262 96.642 C 122.240 99.375,122.282 99.685,122.840 100.863 C 123.170 101.562,123.697 103.170,124.009 104.436 C 124.322 105.702,124.819 107.215,125.115 107.798 C 125.410 108.382,125.772 109.521,125.919 110.330 C 126.203 111.895,126.426 112.455,127.058 113.188 C 127.276 113.440,127.636 114.318,127.858 115.138 C 128.514 117.553,129.602 119.129,131.364 120.219 L 132.179 120.722 132.714 120.101 C 133.008 119.759,133.470 118.735,133.740 117.825 C 134.011 116.914,134.529 115.641,134.891 114.995 C 135.356 114.167,135.554 113.490,135.564 112.701 C 135.572 112.086,135.666 111.118,135.773 110.550 C 135.881 109.983,136.042 109.140,136.131 108.677 C 136.279 107.908,136.212 107.753,135.348 106.854 C 134.829 106.313,134.404 105.994,134.404 106.144 C 134.404 106.295,134.147 106.396,133.830 106.369 C 133.055 106.305,133.101 106.158,134.202 105.163 C 134.953 104.485,135.035 104.343,134.603 104.472 C 133.138 104.911,132.025 106.516,132.153 108.004 L 132.225 108.830 131.038 108.899 L 129.852 108.968 129.777 105.726 C 129.694 102.157,129.561 101.835,128.167 101.835 L 127.523 101.835 127.523 100.115 C 127.523 99.169,127.437 98.394,127.333 98.394 C 127.228 98.394,127.151 98.162,127.161 97.878 C 127.176 97.434,127.047 97.353,126.228 97.293 C 125.190 97.217,125.105 97.040,124.943 94.610 C 124.902 93.995,124.782 93.713,124.580 93.756 C 124.414 93.790,124.344 93.711,124.425 93.580 C 124.507 93.449,124.669 93.401,124.786 93.473 C 125.061 93.643,125.055 93.332,124.776 92.891 C 124.590 92.597,124.509 92.613,124.206 93.006 C 123.853 93.463,123.852 93.463,124.010 93.005 C 124.156 92.583,124.134 92.574,123.739 92.890 C 123.349 93.202,123.323 93.197,123.459 92.833 C 123.576 92.520,123.488 92.431,123.057 92.431 C 122.442 92.431,122.105 92.088,122.488 91.851 C 122.655 91.748,122.613 91.562,122.362 91.284 C 122.141 91.040,122.080 90.815,122.213 90.732 C 122.337 90.656,122.488 90.723,122.549 90.882 C 122.610 91.040,122.649 90.943,122.635 90.665 C 122.618 90.322,122.529 90.229,122.355 90.373 C 122.194 90.507,121.986 90.481,121.796 90.304 C 121.550 90.076,121.521 90.105,121.646 90.457 C 121.814 90.931,121.342 90.661,120.687 89.908 C 120.436 89.620,120.428 89.647,120.638 90.080 M121.164 91.351 C 121.387 91.693,121.487 91.972,121.384 91.972 C 121.282 91.972,121.183 92.205,121.163 92.489 C 121.129 92.991,121.136 92.990,121.438 92.435 C 121.759 91.846,121.605 91.251,121.042 90.905 C 120.885 90.808,120.940 91.009,121.164 91.351 M120.463 91.973 C 120.440 92.771,120.535 92.831,120.859 92.226 C 121.028 91.910,121.008 91.722,120.787 91.539 C 120.546 91.339,120.479 91.429,120.463 91.973 M21.606 91.789 C 21.253 92.141,21.253 92.721,21.606 93.073 C 22.392 93.860,23.550 92.778,22.804 91.953 C 22.345 91.447,21.996 91.399,21.606 91.789 M309.289 91.972 C 308.879 92.425,308.888 92.431,309.977 92.431 C 311.066 92.431,311.075 92.425,310.665 91.972 C 310.437 91.720,310.127 91.514,309.977 91.514 C 309.827 91.514,309.517 91.720,309.289 91.972 M263.473 93.195 C 263.379 93.426,263.303 94.003,263.303 94.477 L 263.303 95.338 264.392 95.318 C 265.478 95.298,265.482 95.295,265.552 94.453 C 265.639 93.401,265.037 92.940,264.272 93.476 C 263.832 93.784,263.788 93.770,263.718 93.293 C 263.651 92.830,263.625 92.819,263.473 93.195 M167.185 96.158 C 167.175 96.947,167.127 97.798,167.077 98.050 C 166.657 100.177,166.598 100.688,166.773 100.688 C 167.144 100.688,166.861 101.259,166.295 101.652 C 165.761 102.023,165.757 102.041,166.222 102.006 C 166.491 101.986,166.654 101.876,166.584 101.763 C 166.514 101.649,166.655 101.619,166.898 101.696 C 167.427 101.864,167.904 99.926,167.766 98.165 C 167.722 97.597,167.680 96.591,167.673 95.929 C 167.655 94.217,167.205 94.428,167.185 96.158 M94.632 97.964 C 94.117 100.381,94.006 101.949,94.254 103.283 C 94.616 105.228,94.403 110.295,93.820 113.645 C 93.710 114.274,93.672 115.306,93.735 115.938 C 93.798 116.570,93.871 122.764,93.897 129.702 C 93.923 136.640,94.006 142.525,94.082 142.780 C 94.157 143.034,94.291 144.221,94.379 145.417 C 94.467 146.613,94.574 147.953,94.617 148.394 C 94.660 148.836,94.714 149.610,94.737 150.115 C 94.759 150.619,94.825 150.851,94.883 150.631 C 95.004 150.166,95.332 150.100,95.469 150.513 C 95.626 150.983,96.789 150.332,96.789 149.776 C 96.789 149.521,96.686 149.312,96.560 149.312 C 96.433 149.312,96.330 149.212,96.330 149.090 C 96.330 148.968,96.478 148.924,96.658 148.993 C 96.940 149.102,96.989 146.134,97.010 127.484 C 97.023 115.584,97.086 104.558,97.149 102.982 C 97.212 101.405,97.271 99.872,97.279 99.576 C 97.296 98.927,97.049 98.648,96.335 98.510 C 96.041 98.453,95.563 98.185,95.274 97.913 L 94.748 97.419 94.632 97.964 M138.499 98.064 C 138.166 98.240,137.784 98.696,137.651 99.077 C 137.346 99.952,137.397 99.945,138.423 98.977 C 139.377 98.078,139.419 97.578,138.499 98.064 M260.367 98.755 C 259.751 99.187,259.727 99.577,260.288 100.085 C 261.163 100.877,262.245 99.691,261.385 98.883 C 260.913 98.440,260.832 98.429,260.367 98.755 M246.110 101.250 C 245.564 101.909,246.317 102.919,247.124 102.609 C 247.959 102.289,247.687 100.917,246.789 100.917 C 246.568 100.917,246.262 101.067,246.110 101.250 M136.379 102.565 C 136.488 102.742,136.417 102.782,136.164 102.685 C 135.936 102.597,135.807 102.646,135.840 102.807 C 135.870 102.955,135.774 103.080,135.627 103.086 C 135.480 103.092,135.290 103.166,135.205 103.251 C 134.948 103.508,135.621 103.326,136.325 102.948 C 136.870 102.656,136.918 102.569,136.600 102.447 C 136.342 102.348,136.269 102.387,136.379 102.565 M225.145 103.637 C 224.694 104.135,224.854 104.739,225.491 104.941 C 226.348 105.213,226.973 104.129,226.330 103.486 C 225.943 103.099,225.591 103.143,225.145 103.637 M372.516 108.330 L 372.016 108.863 372.588 109.400 C 373.144 109.922,373.174 109.926,373.621 109.521 C 374.193 109.003,374.203 108.667,373.663 108.178 C 373.128 107.694,373.112 107.696,372.516 108.330 M164.598 110.284 C 164.620 110.746,164.550 111.231,164.442 111.361 C 164.335 111.491,164.332 111.737,164.438 111.907 C 164.586 112.148,164.655 112.121,164.747 111.785 C 164.928 111.122,164.914 109.664,164.726 109.547 C 164.634 109.490,164.576 109.822,164.598 110.284 M165.415 111.357 C 165.067 112.655,165.062 113.458,165.399 113.666 C 165.585 113.782,165.620 113.572,165.521 112.935 C 165.444 112.443,165.442 112.180,165.515 112.349 C 165.610 112.569,165.736 112.503,165.957 112.119 C 166.543 111.102,166.574 110.977,166.301 110.707 C 166.090 110.498,166.058 110.516,166.161 110.786 C 166.235 110.979,166.142 111.340,165.956 111.589 C 165.642 112.008,165.627 111.979,165.751 111.181 C 165.935 110.003,165.751 110.099,165.415 111.357 M162.647 112.786 C 162.299 113.028,161.747 113.141,161.099 113.101 L 160.092 113.039 160.054 115.522 C 160.033 116.887,160.013 118.288,160.009 118.635 C 160.005 119.012,159.876 119.266,159.689 119.266 C 159.517 119.266,159.440 119.369,159.518 119.495 C 159.596 119.622,159.525 119.732,159.360 119.742 C 158.922 119.767,157.951 119.954,157.877 120.028 C 157.842 120.063,157.791 120.990,157.762 122.087 C 157.734 123.185,157.631 124.083,157.533 124.083 C 157.434 124.083,157.405 124.216,157.468 124.380 C 157.531 124.543,157.321 124.904,157.002 125.181 C 156.683 125.458,156.419 125.608,156.415 125.515 C 156.411 125.421,156.256 125.544,156.071 125.789 C 155.885 126.034,155.722 126.137,155.707 126.019 C 155.623 125.348,155.325 127.434,155.302 128.857 C 155.268 130.958,155.077 131.322,153.907 131.509 C 153.398 131.590,152.975 131.733,152.966 131.826 C 152.957 131.919,152.904 133.176,152.847 134.619 C 152.738 137.405,152.538 137.940,151.577 138.012 C 150.696 138.079,150.416 138.633,150.128 140.879 C 149.872 142.883,149.364 144.241,149.005 143.882 C 148.921 143.799,148.853 143.894,148.853 144.094 C 148.853 144.294,148.738 144.496,148.597 144.543 C 148.342 144.628,148.256 149.250,148.505 149.499 C 148.569 149.563,148.828 149.428,149.081 149.199 C 149.334 148.969,149.552 148.824,149.564 148.875 C 149.794 149.815,149.677 150.215,149.277 149.853 C 148.803 149.424,148.694 149.727,149.140 150.235 C 149.298 150.414,149.205 150.377,148.933 150.151 C 148.563 149.843,148.397 149.811,148.267 150.020 C 148.157 150.199,148.190 150.241,148.359 150.137 C 148.515 150.040,148.624 150.116,148.624 150.320 C 148.624 150.536,148.318 150.725,147.819 150.818 C 147.376 150.901,146.947 151.077,146.866 151.208 C 146.785 151.340,146.826 151.380,146.959 151.298 C 147.091 151.216,147.262 151.312,147.338 151.511 C 147.540 152.036,147.502 152.229,147.270 151.863 C 147.160 151.689,146.953 151.619,146.811 151.707 C 146.669 151.795,146.621 151.979,146.706 152.116 C 146.791 152.252,146.755 152.299,146.626 152.220 C 146.497 152.140,146.445 151.799,146.509 151.462 C 146.584 151.067,146.540 150.902,146.385 150.998 C 146.244 151.086,146.141 152.053,146.139 153.326 L 146.135 155.505 146.749 155.362 C 147.803 155.117,148.231 154.510,148.295 153.169 C 148.378 151.436,148.608 150.688,149.056 150.688 C 149.743 150.688,150.437 150.004,150.593 149.173 C 150.709 148.553,150.924 148.275,151.495 148.002 C 152.458 147.543,153.236 145.933,153.190 144.495 C 153.117 142.201,153.202 141.514,153.555 141.514 C 153.744 141.514,153.901 141.333,153.903 141.112 C 153.906 140.770,153.938 140.761,154.125 141.055 C 154.423 141.522,155.158 141.067,155.167 140.410 C 155.171 140.148,155.249 139.858,155.339 139.768 C 155.598 139.509,155.536 138.486,155.271 138.649 C 155.143 138.728,155.108 138.905,155.192 139.042 C 155.287 139.195,155.239 139.225,155.066 139.118 C 154.852 138.986,154.867 138.856,155.128 138.567 C 155.364 138.306,155.469 137.688,155.465 136.583 C 155.458 134.353,155.445 134.404,156.027 134.404 C 156.867 134.404,157.628 133.745,157.509 133.121 C 157.452 132.825,157.494 132.637,157.602 132.704 C 157.911 132.895,157.831 131.778,157.511 131.434 C 157.291 131.196,157.290 131.162,157.508 131.285 C 157.719 131.404,157.779 131.120,157.745 130.153 C 157.699 128.874,157.710 128.852,158.871 127.779 C 160.229 126.524,160.793 123.724,159.567 124.324 C 159.083 124.561,159.085 124.552,159.597 124.138 C 159.927 123.872,160.104 123.520,160.056 123.224 C 160.001 122.892,160.287 122.457,160.980 121.817 C 161.626 121.220,161.935 120.765,161.848 120.540 C 161.770 120.336,161.828 120.212,161.987 120.244 C 162.451 120.337,162.439 118.627,161.974 118.505 C 161.614 118.410,161.614 118.400,161.967 118.375 C 162.590 118.332,162.816 115.920,162.241 115.457 C 161.835 115.131,161.839 115.125,162.313 115.354 C 162.588 115.487,162.872 115.596,162.944 115.596 C 163.148 115.596,163.095 114.689,162.865 114.259 C 162.515 113.605,163.191 112.864,163.687 113.359 C 164.039 113.712,164.033 113.730,163.595 113.615 C 163.337 113.547,163.063 113.593,162.987 113.716 C 162.911 113.838,162.977 113.934,163.133 113.929 C 163.290 113.923,163.675 113.945,163.991 113.978 L 164.564 114.037 163.991 114.195 C 163.325 114.378,163.002 115.596,163.619 115.596 C 164.462 115.596,165.037 113.471,164.426 112.615 C 164.227 112.335,164.200 112.363,164.287 112.762 C 164.395 113.261,164.240 113.300,163.476 112.969 C 163.256 112.874,163.133 112.704,163.203 112.591 C 163.375 112.312,163.280 112.345,162.647 112.786 M232.119 112.948 C 231.432 113.776,232.450 114.835,233.243 114.118 C 233.810 113.605,233.826 113.446,233.355 112.975 C 232.905 112.525,232.478 112.516,232.119 112.948 M100.137 114.768 C 100.207 114.952,100.426 115.164,100.624 115.240 C 101.183 115.454,101.155 115.292,100.555 114.843 C 100.144 114.536,100.040 114.517,100.137 114.768 M165.424 114.806 C 165.267 114.978,165.142 115.355,165.147 115.644 C 165.156 116.143,165.174 116.136,165.505 115.525 C 165.904 114.790,165.853 114.340,165.424 114.806 M253.094 115.369 C 252.689 115.817,252.693 115.847,253.219 116.408 L 253.761 116.985 254.332 116.414 C 254.890 115.856,254.893 115.832,254.480 115.376 C 253.948 114.788,253.622 114.786,253.094 115.369 M165.494 116.932 C 165.400 117.351,165.380 117.750,165.449 117.819 C 165.621 117.991,165.895 116.833,165.768 116.466 C 165.711 116.303,165.588 116.513,165.494 116.932 M358.369 117.663 C 357.964 118.111,357.968 118.141,358.494 118.701 L 359.037 119.279 359.608 118.708 C 360.165 118.150,360.169 118.126,359.756 117.669 C 359.224 117.081,358.897 117.080,358.369 117.663 M165.842 117.928 C 165.833 118.139,165.757 118.491,165.672 118.712 C 165.561 119.000,165.600 119.061,165.811 118.931 C 166.027 118.797,166.065 118.875,165.953 119.226 C 165.791 119.738,166.255 120.830,166.843 121.318 C 167.337 121.728,167.353 120.272,166.860 119.728 C 166.673 119.520,166.370 118.944,166.188 118.448 C 166.007 117.952,165.851 117.718,165.842 117.928 M161.632 119.974 C 161.378 120.381,161.349 120.383,161.213 120.011 C 161.024 119.492,161.169 119.254,161.579 119.411 C 161.840 119.511,161.851 119.623,161.632 119.974 M49.692 119.915 C 48.834 120.862,49.878 121.970,50.806 121.097 L 51.379 120.560 50.879 120.028 C 50.276 119.386,50.178 119.377,49.692 119.915 M14.700 122.227 C 14.108 122.818,14.103 122.988,14.660 123.492 C 15.573 124.318,16.613 123.095,15.715 122.252 L 15.179 121.748 14.700 122.227 M98.769 129.325 C 97.976 130.200,99.162 131.282,99.970 130.422 C 100.414 129.950,100.424 129.869,100.098 129.404 C 99.666 128.787,99.276 128.764,98.769 129.325 M105.884 129.319 C 105.273 129.994,105.771 130.871,106.995 131.276 C 107.408 131.413,107.403 131.387,106.942 131.024 C 106.545 130.710,106.446 130.426,106.499 129.759 C 106.576 128.799,106.442 128.702,105.884 129.319 M302.297 134.056 L 301.794 134.592 302.273 135.071 C 302.864 135.662,303.034 135.668,303.538 135.111 C 304.364 134.198,303.141 133.158,302.297 134.056 M49.656 136.468 C 49.255 136.911,49.255 136.943,49.656 137.385 C 50.192 137.978,50.577 137.965,51.014 137.341 C 51.689 136.377,50.455 135.584,49.656 136.468 M167.297 145.298 C 167.298 147.695,167.332 148.644,167.373 147.408 C 167.414 146.171,167.414 144.210,167.373 143.050 C 167.331 141.890,167.297 142.901,167.297 145.298 M302.297 145.753 L 301.794 146.289 302.273 146.768 C 302.864 147.359,303.034 147.365,303.538 146.808 C 304.364 145.895,303.141 144.855,302.297 145.753 M372.505 145.727 C 372.063 146.197,372.053 146.278,372.379 146.743 C 372.814 147.364,373.201 147.382,373.721 146.808 C 374.530 145.915,373.330 144.849,372.505 145.727 M96.315 150.133 C 96.169 150.309,95.952 150.394,95.834 150.321 C 95.708 150.243,95.729 150.057,95.886 149.867 C 96.033 149.691,96.249 149.606,96.367 149.679 C 96.494 149.757,96.473 149.943,96.315 150.133 M253.190 152.773 L 252.711 153.252 253.222 153.796 C 254.067 154.696,255.271 153.634,254.442 152.719 C 253.952 152.177,253.779 152.185,253.190 152.773 M309.319 152.719 C 308.491 153.634,309.694 154.696,310.539 153.796 L 311.050 153.252 310.571 152.773 C 309.983 152.185,309.810 152.177,309.319 152.719 M302.321 157.425 C 301.880 157.895,301.870 157.975,302.195 158.440 C 302.630 159.061,303.018 159.080,303.538 158.505 C 304.346 157.612,303.146 156.546,302.321 157.425 M144.725 157.771 C 143.983 157.902,143.920 157.977,143.898 158.766 C 143.883 159.331,143.960 159.567,144.128 159.467 C 144.267 159.384,144.239 159.490,144.066 159.704 C 143.794 160.039,143.804 160.092,144.140 160.092 C 144.409 160.092,144.508 159.934,144.462 159.576 C 144.383 158.965,144.668 158.424,144.970 158.611 C 145.087 158.683,145.183 158.642,145.183 158.519 C 145.183 158.396,145.054 158.236,144.897 158.163 C 144.739 158.091,144.842 158.089,145.126 158.160 C 145.496 158.252,145.642 158.186,145.642 157.928 C 145.642 157.731,145.616 157.582,145.585 157.599 C 145.553 157.616,145.166 157.693,144.725 157.771 M145.903 158.085 C 145.886 158.306,145.748 158.486,145.596 158.486 C 145.384 158.486,145.384 158.549,145.593 158.758 C 145.957 159.122,146.161 158.875,146.036 158.219 C 145.972 157.885,145.922 157.834,145.903 158.085 M144.666 158.851 C 144.481 159.036,144.770 160.092,145.005 160.092 C 145.130 160.092,145.174 159.940,145.103 159.755 C 144.943 159.338,145.319 159.067,145.547 159.435 C 145.658 159.614,145.613 159.642,145.413 159.518 C 145.213 159.395,145.168 159.422,145.279 159.601 C 145.448 159.875,145.872 159.751,145.872 159.427 C 145.872 159.209,144.813 158.704,144.666 158.851 M84.755 164.441 C 83.912 165.373,85.137 166.410,85.998 165.493 L 86.509 164.949 86.030 164.470 C 85.437 163.877,85.269 163.873,84.755 164.441 M239.136 164.416 C 238.307 165.331,239.511 166.393,240.356 165.493 L 240.867 164.949 240.388 164.470 C 239.799 163.882,239.626 163.874,239.136 164.416 M35.701 166.704 C 34.843 167.651,35.887 168.759,36.816 167.886 L 37.388 167.349 36.888 166.817 C 36.285 166.175,36.188 166.166,35.701 166.704 M358.372 171.560 C 357.927 172.050,358.370 172.936,359.060 172.936 C 359.210 172.936,359.519 172.729,359.748 172.477 C 360.192 171.986,359.749 171.101,359.060 171.101 C 358.910 171.101,358.600 171.307,358.372 171.560 M260.214 173.845 C 259.371 174.777,260.595 175.814,261.457 174.897 L 261.968 174.353 261.489 173.874 C 260.895 173.281,260.728 173.277,260.214 173.845 M288.186 185.553 C 287.781 186.001,287.784 186.031,288.311 186.591 L 288.853 187.168 289.424 186.598 C 289.982 186.040,289.985 186.016,289.572 185.559 C 289.040 184.971,288.714 184.970,288.186 185.553 M295.306 185.542 C 294.462 186.474,295.687 187.511,296.549 186.594 L 297.060 186.050 296.580 185.571 C 295.987 184.978,295.820 184.974,295.306 185.542 M56.682 190.220 L 56.190 190.743 56.770 191.289 L 57.351 191.834 57.836 191.349 C 58.371 190.813,58.290 190.294,57.613 189.932 C 57.264 189.745,57.072 189.804,56.682 190.220 M288.307 190.248 L 287.803 190.784 288.282 191.264 C 288.873 191.855,289.043 191.860,289.547 191.303 C 290.373 190.391,289.150 189.350,288.307 190.248 M365.517 190.098 C 364.660 191.046,365.704 192.153,366.632 191.281 L 367.204 190.743 366.704 190.211 C 366.102 189.570,366.004 189.560,365.517 190.098 M330.418 194.844 C 330.213 195.049,330.046 195.305,330.046 195.413 C 330.046 196.221,331.298 196.517,331.740 195.814 C 332.270 194.973,331.128 194.135,330.418 194.844 M183.312 199.235 C 182.666 199.495,182.544 200.188,183.058 200.668 C 183.918 201.468,185.047 200.379,184.259 199.508 C 183.857 199.064,183.787 199.044,183.312 199.235 M337.396 201.938 L 336.885 202.482 337.365 202.961 C 337.958 203.554,338.125 203.558,338.639 202.990 C 339.483 202.058,338.258 201.021,337.396 201.938 M56.670 204.221 C 56.306 204.660,56.424 205.270,56.935 205.591 C 57.514 205.956,58.479 204.992,58.116 204.412 C 57.788 203.889,57.029 203.788,56.670 204.221 M365.517 211.199 C 364.660 212.147,365.704 213.254,366.632 212.382 L 367.204 211.844 366.704 211.312 C 366.102 210.670,366.004 210.661,365.517 211.199 M169.057 213.511 C 168.464 214.105,168.460 214.272,169.028 214.786 C 169.960 215.629,170.997 214.405,170.081 213.543 L 169.537 213.032 169.057 213.511 M288.333 213.615 C 287.889 214.087,287.879 214.168,288.204 214.633 C 288.636 215.249,289.027 215.273,289.534 214.712 C 290.326 213.837,289.141 212.755,288.333 213.615 M295.459 213.434 C 294.830 213.874,294.820 214.257,295.422 214.801 C 295.878 215.215,295.902 215.211,296.460 214.654 L 297.031 214.083 296.497 213.581 C 296.005 213.119,295.925 213.107,295.459 213.434 M393.586 215.932 C 393.022 216.532,393.361 217.431,394.151 217.431 C 394.958 217.431,395.291 216.517,394.699 215.925 L 394.128 215.354 393.586 215.932 M372.380 218.393 C 371.705 219.357,372.939 220.149,373.739 219.266 C 374.139 218.823,374.139 218.791,373.739 218.349 C 373.202 217.756,372.817 217.769,372.380 218.393 M182.929 220.688 C 182.603 221.154,182.614 221.234,183.063 221.712 C 183.889 222.591,185.069 221.504,184.259 220.609 C 183.752 220.048,183.361 220.072,182.929 220.688 M218.021 220.688 C 217.695 221.153,217.706 221.234,218.149 221.706 C 218.957 222.566,220.143 221.484,219.351 220.609 C 218.843 220.048,218.453 220.072,218.021 220.688 M386.507 223.009 L 386.007 223.541 386.579 224.079 C 387.134 224.601,387.165 224.605,387.612 224.199 C 388.184 223.682,388.194 223.345,387.654 222.857 C 387.119 222.373,387.103 222.375,386.507 223.009 M379.608 225.209 C 379.017 225.800,379.011 225.970,379.568 226.474 C 380.481 227.300,381.521 226.077,380.623 225.233 L 380.087 224.729 379.608 225.209 M190.039 227.654 C 189.222 228.472,189.571 229.358,190.711 229.358 C 191.632 229.358,191.743 229.302,191.743 228.835 C 191.743 227.644,190.743 226.950,190.039 227.654 " stroke="none" fill="#c6d1d1" fill-rule="evenodd"></path></g></svg>